<svg xmlns="http://www.w3.org/2000/svg" xmlns:xlink="http://www.w3.org/1999/xlink" viewBox="0 0 105.72 142.83"><defs><style>.cls-1{fill:none;}.cls-2{clip-path:url(#clip-path);}.cls-3{fill:#ffe706;}.cls-4{fill:#ffc408;}.cls-5{fill:#4f4b4b;}.cls-6{fill:#c1b0b0;}.cls-7{fill:#301d1d;}.cls-8{fill:#4ec93d;}.cls-9{fill:#3f2727;}.cls-10{fill:#261f1d;}.cls-11{fill:#343835;}.cls-12{fill:#1f2120;}.cls-13{clip-path:url(#clip-path-2);}.cls-14{clip-path:url(#clip-path-3);}.cls-15{fill:#419638;}.cls-16,.cls-17,.cls-18{fill:#c1d1d3;}.cls-16{opacity:0.27;}.cls-18{stroke:#c1d1d3;}.cls-18,.cls-20{stroke-miterlimit:10;}.cls-19{clip-path:url(#clip-path-4);}.cls-20{fill:#fdcd9a;stroke:#f5b683;stroke-width:0.25px;}.cls-21{fill:#f5b683;}.cls-22{fill:#f9b780;}.cls-23{fill:#ededed;}</style><clipPath id="clip-path" transform="translate(4.42 8.55)"><circle class="cls-1" cx="50.18" cy="50.38" r="49"/></clipPath><clipPath id="clip-path-2" transform="translate(4.42 8.55)"><path class="cls-1" d="M99.18,50.38A49,49,0,1,1,16.36,14.92c8.79-8.39-7.3-23.54,5.82-23.54,4.91,0,47.52-6.35,52-5C81.64-11.38,78.49,9.67,84,14.91A48.88,48.88,0,0,1,99.18,50.38Z"/></clipPath><clipPath id="clip-path-3" transform="translate(4.42 8.55)"><polygon id="SVGID" class="cls-1" points="82.05 94.59 29.92 98 22.18 -2.62 75.47 -5.88 82.05 94.59"/></clipPath><clipPath id="clip-path-4" transform="translate(4.42 8.55)"><circle id="SVGID-2" data-name="SVGID" class="cls-1" cx="48.18" cy="65.38" r="54"/></clipPath></defs><title>tree-circle-yellow</title><g id="circle_kopie" data-name="circle kopie"><g class="cls-2"><rect class="cls-3" x="4.59" y="7.92" width="100" height="101"/><path class="cls-4" d="M62.56,9.66S65.67,17,81.25,21.11s22.84,37.45,7.26,38.49-66.44,25-76.83,15.61-22.84-40.58-4.15-52S28.3,1.34,42.83,2.38,62.56,9.66,62.56,9.66Z" transform="translate(4.42 8.55)"/><polygon class="cls-5" points="26.59 6.92 5.59 108.92 77.59 108.92 58.59 6.92 26.59 6.92"/><rect class="cls-6" x="41.59" y="10.92" width="2" height="14"/><rect class="cls-6" x="40.59" y="64.92" width="3" height="16"/><rect class="cls-6" x="40.59" y="93.92" width="3" height="16"/><path class="cls-7" d="M47.18,29.38,56.93,25s9.25-3.64,9.25-4.64.39,1.27-.81,2.14,4.73-1.13,4.73-1.13S64.73,25.67,68,25l3.23-.64-9,5,8.43-2.85-3.43,2.85s0-2,3-1S74.63,28,74.63,28l-4.37,2L55.83,36.58l-5.65,2.8-6-7Z" transform="translate(4.42 8.55)"/><path class="cls-8" d="M46.18,33.38s6,0,6,3-1.63,2-1.63,2,5.63,3,1.63,4c0,0,1,3-2,3,0,0,5.43,3.15-.29,4.57,0,0-.71,1.43-2.71.43l-4,2s6,3,1,4c0,0-1,4-4,3,0,0-1,5-5,3,0,0-5,4-6,1,0,0-3,4-6,1s-2-4-2-4-6.44,2.88-7.22-.56,2.22-6.44,2.22-6.44a3,3,0,0,1-2.66-2.6s-4.34,1.6-4.34-1.4v-3s-3.18-1-3.09-2,2.09-5,2.09-5-2.64-3.47-.82-4.24,3.82-1.76,3.82-1.76a3.1,3.1,0,0,1,2-4c3-1,3-.09,3-.09s2-2.91,3-2.91c0,0,0-2,3-1,0,0-.28-3.44,1.36-4.72s4.64-.28,4.64-.28.53-2.92,3.26-2,2.74,0,2.74,2c0,0,9,0,8,5,0,0,1-2,1,0,0,0,4,1,4,2v6Z" transform="translate(4.42 8.55)"/><path class="cls-9" d="M73.73,29.39V32l-.37,1.49-.18,1.86v2l-.51,2.94.51,1.06v6l-1,2-1,2-1.33,1.84L72,51.9l1.16-.52,1-1L77,49.32l1.21-.94-1,4-3,4,6-4,2-4s.37,2.14,5.18,2.57,5.82-.57,5.82-.57-6,.16-6-3a62.06,62.06,0,0,0-1-7,6,6,0,0,1,0-2,13.38,13.38,0,0,0-1-5,13.38,13.38,0,0,1-1-5l-1,2-.85-.09-1.15-1.91-1,1-.41-1.46-1.59,3.46-1-7-1,7-1,1-1-3Z" transform="translate(4.42 8.55)"/><path d="M10.82,33.11v-.7a2,2,0,0,1,.76-1.62c.56-.49,1.15-.94,1.75-1.37a3.06,3.06,0,0,1,1.94-.51.91.91,0,0,0,.9-.46A4.29,4.29,0,0,1,18,27a1.87,1.87,0,0,0,.55-.43c.29-.31.56-.64.85-1a2.52,2.52,0,0,1,2.25-.88,2.23,2.23,0,0,0,.26,0,2.56,2.56,0,0,0,0-.48,3,3,0,0,1,.4-2.09,4.78,4.78,0,0,1,1.74-1.83,2.76,2.76,0,0,1,1.33-.46,7.46,7.46,0,0,1,2.4.2c.39.11.59,0,.72-.42a1.55,1.55,0,0,0,.06-.23.9.9,0,0,1,.63-.76,6.77,6.77,0,0,1,3.59-.42,1.5,1.5,0,0,1,1.27,1.33c0,.26.05.51.08.76s.14.42.46.44c.94.08,1.89.13,2.84.2a9.92,9.92,0,0,1,2.16.28,3.87,3.87,0,0,1,2.59,3.94.49.49,0,0,1-.06.13c-.18,0-.17-.16-.19-.28a7.21,7.21,0,0,0-.15-.93A4.08,4.08,0,0,0,40.52,22a3.51,3.51,0,0,0-2-.68c-1.33-.13-2.65-.21-4-.29a2.62,2.62,0,0,0-1.69.34,1.23,1.23,0,0,0-.31.29c-.33.43-.29.58.19.84l.24.13a1.65,1.65,0,0,1-.35.25,13,13,0,0,0-3.29,1.86c-.56.39-1.1.81-1.63,1.23s-.5.63-.05,1.07l.71.71a.55.55,0,0,1,0,.9,7.27,7.27,0,0,0-1.49,2.51.67.67,0,0,0,.08.68q.42.54.87,1.05c.2.23.41.44.63.65a6.14,6.14,0,0,1,1,2c.16.34.28.7.44,1a.65.65,0,0,0,.71.43c.29,0,.57,0,.86,0a2.05,2.05,0,0,1,1.13.29,6.55,6.55,0,0,0,.88.31.69.69,0,0,1-1,.08,1.86,1.86,0,0,0-1.57-.3c-.79.14-1.16-.11-1.45-.87a18.12,18.12,0,0,0-.75-1.89,6.08,6.08,0,0,0-.86-1.12c-.3-.36-.64-.7-.95-1.06a1.46,1.46,0,0,1-.27-1.63,7.67,7.67,0,0,1,1.12-2c.11-.14.23-.27.33-.41s.16-.33-.05-.53-.54-.49-.78-.76c-.46-.5-.42-.89.11-1.32l.51-.36a1.58,1.58,0,0,0-1.75-.65A12.24,12.24,0,0,0,22,26.59a1.62,1.62,0,0,0-.8,1.37,1.48,1.48,0,0,0,.7,1.27c.39.31.76.65,1.18,1a2.28,2.28,0,0,1-.27.21,7.28,7.28,0,0,0-1.95,1.34c-.72.62-1.42,1.26-2.11,1.91a2.36,2.36,0,0,0-.71,1.1,2.07,2.07,0,0,0,.36,1.85A3.13,3.13,0,0,0,20.58,38a2.6,2.6,0,0,1,.38.12c-.12.08-.19.16-.26.17a1.56,1.56,0,0,0-1.11.74,17.28,17.28,0,0,0-1.07,1.74,1.63,1.63,0,0,0,0,1.68,1,1,0,0,0,.39.4,3.25,3.25,0,0,0,1.6.37,4,4,0,0,1,.56,0c-.27.31-.56.21-.8.2a10.09,10.09,0,0,1-1.08-.17,1.56,1.56,0,0,1-1.22-1.68,2.71,2.71,0,0,1,.67-1.73c.29-.31.49-.7.75-1s.34-.4.53-.63c-.36-.21-.74-.4-1.11-.64a2.59,2.59,0,0,1-1-3.11,2.32,2.32,0,0,1,.49-.7c1-1,2.06-2,3.11-2.92a2,2,0,0,1,1-.55c.05,0,.1-.05.2-.1-.12-.1-.2-.19-.3-.26l-.61-.44a1.81,1.81,0,0,1,.14-3.13A12.7,12.7,0,0,1,25,24.79c.37-.09.73-.22,1.1-.3a1.6,1.6,0,0,1,1.69.48c.29.34.34.33.69,0a18.18,18.18,0,0,1,2.81-1.85c.3-.17.62-.3,1-.45l-.09-.29a1,1,0,0,1,.63-1.3c.26-.11.54-.2.81-.29s.32-.13.28-.44-.07-.5-.1-.75a1.19,1.19,0,0,0-1.23-1.19,6.39,6.39,0,0,0-3,.38,1,1,0,0,0-.6.56c-.07.17-.12.33-.18.49-.16.4-.28.5-.72.46-.6-.05-1.2-.12-1.79-.21a3.14,3.14,0,0,0-2.72,1,4.15,4.15,0,0,0-1.29,2.22,1.94,1.94,0,0,0,.31,1.57c.06.08.11.18.22.37-.25-.07-.4-.1-.54-.15a2.09,2.09,0,0,0-1.87.1,3.72,3.72,0,0,0-1.56,1.56l.36.08s0,0,0,.06l-1,.34a3.09,3.09,0,0,0-1.76,1.43.84.84,0,0,1-.79.49c-.44,0-.89.07-1.33.12a1.06,1.06,0,0,0-.39.13A15.35,15.35,0,0,0,12,30.79,2.38,2.38,0,0,0,11.12,33c.31,0,.6,0,.89-.06a3.79,3.79,0,0,1,2.05.26c.34.15.41.09.61-.22a2.94,2.94,0,0,1,.45-.6,7.35,7.35,0,0,1,1.79-1.45,3.73,3.73,0,0,1,.95-3.22,3.59,3.59,0,0,1-.37,1,4,4,0,0,0-.38,1.66c0,.38,0,.42.4.39s1-.11,1.46-.16a1.26,1.26,0,0,1,1,.24c-.49,0-.88.07-1.26.06a4,4,0,0,0-3.32,1.54c-.18.2-.36.4-.55.59-.34.36-.34.38-.06.88l-.45-.18a3.57,3.57,0,0,0,0,3.39c-.31.05-.4-.14-.48-.35A3.6,3.6,0,0,1,14,34c.17-.35.16-.38-.18-.49A2.91,2.91,0,0,0,12,33.34a4.17,4.17,0,0,1-.52,0c-.16,0-.33,0-.22.42a.59.59,0,0,0-.8-.19c-.48.23-1,.4-1.47.64A4.42,4.42,0,0,0,7.11,36a2,2,0,0,0,.4,2.54c.18.15.38.28.55.44s.28.38.11.62A10.66,10.66,0,0,0,6.92,42.4c-.18.53-.32,1.06-.45,1.6a1.11,1.11,0,0,0,.89,1.49,7.73,7.73,0,0,0,.94.17l.64.09v.1a.61.61,0,0,1-.31.09,10.51,10.51,0,0,1-1.59-.24A1.41,1.41,0,0,1,6.13,44c.15-.67.33-1.35.5-2a.51.51,0,0,1,.1-.21,3.54,3.54,0,0,0,.59-1.18,7.36,7.36,0,0,1,.42-.9c.08-.17.17-.33.28-.55a4.73,4.73,0,0,0-.44-.29,2.25,2.25,0,0,1-.7-3.15A5.21,5.21,0,0,1,8.9,34C9.51,33.69,10.14,33.42,10.82,33.11Z" transform="translate(4.42 8.55)"/><path d="M50.2,38.68c.33-.13.45-.41.6-.69a1.89,1.89,0,0,1,.48-.45,1.47,1.47,0,0,0,.61-1.83,2.41,2.41,0,0,0-1.23-1.39,3.51,3.51,0,0,0-.85-.27,9.81,9.81,0,0,0-1.09-.1,1.29,1.29,0,0,1-.76-.33,5.27,5.27,0,0,1,.59,0,6.35,6.35,0,0,1,2.28.38,2.11,2.11,0,0,1,.9.74,7.33,7.33,0,0,1,.53.9,1.18,1.18,0,0,1,0,1.14,2.91,2.91,0,0,0-.1.28,8.49,8.49,0,0,0,4.23-.72q2.58-1.2,5.14-2.43c1.23-.58,2.45-1.18,3.69-1.74S68,31,69.43,30.34c.49-.22,1-.41,1.49-.61a1.72,1.72,0,0,0,.5-.27,2.11,2.11,0,0,1,1.38-.39,1.56,1.56,0,0,1-.28.23l-1.2.67a.35.35,0,0,1-.13.05,8.91,8.91,0,0,0-2.79,1c-1.49.63-3,1.29-4.42,2-1.77.83-3.53,1.7-5.3,2.54l-1.89.89a1.82,1.82,0,0,0-.26.2c.77.16,1.48-.17,2.2,0a.32.32,0,0,1-.34.2,15.8,15.8,0,0,1-1.94.07,3,3,0,0,0-1.64.39c-.56.29-1.12.57-1.68.88a3.11,3.11,0,0,0-.42.32c-.18-.16-.2-.22,0-.36s.74-.42,1.11-.63a.68.68,0,0,0,.26-.25h-.48a11.7,11.7,0,0,1-1.18,0,.92.92,0,0,0-.74.24c-.21.19-.4.39-.66.64.36.26.64.49.94.68a4.51,4.51,0,0,1,1.46,1.39,1.14,1.14,0,0,1,.15.29A1,1,0,0,1,53.14,42c-.19.13-.4.24-.65.39,0,.17.07.35.11.53a6.5,6.5,0,0,1,.24,1.06,1.39,1.39,0,0,1-.16.68,1.55,1.55,0,0,1-1.2,1,.39.39,0,0,0-.14.05s0,0,0,.1l.47.33.52.34a1.06,1.06,0,0,1,.43,1.43,3.68,3.68,0,0,1-2.82,2.48c-.4.11-.8.18-1.21.25a1.48,1.48,0,0,1-1-.2c-.44-.26-.73-.12-1.07.21a4.47,4.47,0,0,1-2,1.22,4.23,4.23,0,0,1-.94.1.88.88,0,0,1-.83-.52c-.09-.17-.19-.33-.32-.55a1.21,1.21,0,0,0-.13.74,1.6,1.6,0,0,1-.27.89,2.79,2.79,0,0,1-4.81,0l-.17-.25L36,53.44a6.19,6.19,0,0,1-1.83,1.33,4.4,4.4,0,0,1-1.13.31,1,1,0,0,1-.59-.13A3,3,0,0,1,31,53.37a13.18,13.18,0,0,0-.6-1.18l-.55.26a4.08,4.08,0,0,1-3.45.14A2.81,2.81,0,0,1,25,51.32a2,2,0,0,1-.06-1.53A8.61,8.61,0,0,1,26,47.4c.36-.51.32-.63-.15-1.08a8.07,8.07,0,0,1-1.36-1.38,2.1,2.1,0,0,1,.06-2.49,12.22,12.22,0,0,1,1.78-2C27,40,27.45,39.38,28,38.83a6.71,6.71,0,0,1,.85-.75,1.36,1.36,0,0,1,.65-.22c.29,0,.35.06.4.42a1.36,1.36,0,0,0-.54-.12c-.16,0-.31.2-.45.32l-1.64,1.58A21.6,21.6,0,0,0,25,42.5a1.93,1.93,0,0,0,.09,2.63c.3.33.63.62.94.93.09.09.17.19.26.29.42.5.43.72,0,1.26a6.36,6.36,0,0,0-1.13,2.48A1.71,1.71,0,0,0,26,51.93a3.31,3.31,0,0,0,2.22.68,10.07,10.07,0,0,0,1.5-.4c.18-.05.36-.14.54-.18a.6.6,0,0,1,.77.37l.65,1.32a2,2,0,0,0,.28.38,1.62,1.62,0,0,0,2.17.36,10.45,10.45,0,0,0,2.72-2.28,3.81,3.81,0,0,1,.45-.4,3.74,3.74,0,0,1,.31.47,2.42,2.42,0,0,0,2.36,1.38,2.06,2.06,0,0,0,1.52-.79A1.6,1.6,0,0,0,42,51.51a.92.92,0,0,1,.16-.57c.28-.44.59-.86.9-1.28a3.45,3.45,0,0,0,.34-3.22,1.47,1.47,0,0,0-.79-.85l-.39-.22a.64.64,0,0,1,.61,0,1.66,1.66,0,0,1,.95,1.11,4.36,4.36,0,0,1,0,2.53A4.1,4.1,0,0,1,43,50.25c-.31.42-.31.44,0,.87a1.23,1.23,0,0,0,1.65.45,7.12,7.12,0,0,0,1.76-1.2l.47-.4a.4.4,0,0,1,.59,0,1.64,1.64,0,0,0,1.61.33,14,14,0,0,0,1.66-.55,2.65,2.65,0,0,0,1.66-2,1.28,1.28,0,0,0-.64-1.32c-.35-.17-.73-.3-1.09-.46-.15-.07-.29-.16-.43-.24l0-.09c.2,0,.4-.07.6-.08a1.51,1.51,0,0,0,1.44-1,1.83,1.83,0,0,0-.26-2l-.25-.29c.22-.07.39-.13.57-.17a1,1,0,0,0,.72-1.67,3.93,3.93,0,0,0-1.4-1.32c-.07-.06-.17-.09-.24-.15-.32-.31-.65-.49-1.07-.16,0,0-.09,0-.13,0Z" transform="translate(4.42 8.55)"/><path d="M71.72,46l.33.27.72-.25c.22-.08.29-.22.25-.48a8.22,8.22,0,0,1,.09-2.08c.28.24.2.45.2.65,0,.58,0,1.17,0,1.75s.1.91.12,1.36a1.75,1.75,0,0,1-.09.6,6.82,6.82,0,0,1-.35.72,2,2,0,0,0-.25,1.24,1,1,0,0,1-.09.49,7.14,7.14,0,0,1-.37.71,3.44,3.44,0,0,0,.52-.1A6.88,6.88,0,0,0,74.45,50c.24-.15.44-.4.78-.18.07,0,.22,0,.32,0a5.48,5.48,0,0,0,2.19-1.38.86.86,0,0,0,.17-.33c.1-.24.09-.51.3-.72s.06-.27,0-.4a3.35,3.35,0,0,1,0-1.14c0-.5,0-1,.07-1.51a1,1,0,0,1,.07-.28h.11c0,.25.07.49.09.73s.07.76.07,1.14a.68.68,0,0,0,.3.67,10.91,10.91,0,0,0-.54,2.33c0,.27-.15.52-.2.78a1.39,1.39,0,0,0,0,.41,4.42,4.42,0,0,1-.38,1.64c0,.07-.1.12-.2.22a1.13,1.13,0,0,1,.13-.75,3.08,3.08,0,0,0,.17-.68c-.38.24-.46.67-.64,1a3.34,3.34,0,0,0-.48,1.11c.34,0,.39-.26.56-.4a.84.84,0,0,1,.71-.22c-.1.1-.15.2-.22.25-.45.28-.89.55-1.35.81a1.3,1.3,0,0,1-.87.17.26.26,0,0,1-.23-.34,1,1,0,0,1,.51-.67l-.2.66.45,0a.43.43,0,0,0,.4-.4,3.42,3.42,0,0,1,.22-.61c.07-.17.17-.34.23-.52.21-.54.4-1.09.62-1.63,0-.13.2-.22.31-.34-.38-.14-.57-.08-.75.24-.09.14-.17.3-.26.44a1.39,1.39,0,0,1-.17.19l.14-.68c-.37.53-1,.51-1.49.73s-1,.37-1.5.59a1.93,1.93,0,0,0-.63.42,8.45,8.45,0,0,1-2,1.36,5.68,5.68,0,0,0-.83.55,2.14,2.14,0,0,1-1.08.37l.15-.46a.64.64,0,0,0,.86-.26l-.61.14a1.2,1.2,0,0,1,.88-.52,1.7,1.7,0,0,0,.59-.14c.46-.24.91-.5,1.36-.77a.68.68,0,0,0,.23-.29c-.63,0-1.27,0-1.64.66-.09.19-.34.3-.51.44l-.09-.07c.25-.46.49-.93.75-1.39s.67-1.14,1-1.72a3.33,3.33,0,0,0,.19-.56,1.38,1.38,0,0,0-.36,0c-.24,0-.48,0-.71.08a11.53,11.53,0,0,1-2,0,16.49,16.49,0,0,0-2,.09,9.4,9.4,0,0,1-2.65,0,1.24,1.24,0,0,1-1-.93c.23-.05.43-.06.62-.12a8.55,8.55,0,0,1,2-.28c.22,0,.44-.07.66-.1.92-.15,1.84-.3,2.76-.43a8,8,0,0,0,1.59-.46.43.43,0,0,0,.34-.44Zm-7.61,1.91a1.86,1.86,0,0,0,.24.29,1.56,1.56,0,0,0,1,.3c1.11,0,2.22-.09,3.32-.1.47,0,.95.08,1.42.07.73,0,1.45-.1,2.18-.18a.55.55,0,0,0,.43-.24A2.41,2.41,0,0,0,73,46.31c-.73.25-1.44.5-2.17.72a14.45,14.45,0,0,1-1.7.4c-.89.14-1.79.22-2.69.31C65.67,47.82,65,47.87,64.11,47.94Zm8.16,2a1.66,1.66,0,0,0-.51.82C72.17,50.7,72.28,50.51,72.27,50Zm5.31-1,.39.21C78,48.87,77.89,48.81,77.58,49Z" transform="translate(4.42 8.55)"/><path d="M45.34,35.9a7.59,7.59,0,0,1,2.06,1.72,3,3,0,0,1,1,2.21,3.64,3.64,0,0,0,0,.57,2.46,2.46,0,0,1-1.67,2.67,2.71,2.71,0,0,1-1.86.12,1.06,1.06,0,0,0-1,.2,8.75,8.75,0,0,1-2.72,1.21,2.26,2.26,0,0,1-2.64-1.16,6.08,6.08,0,0,1-.39-1.06c-.06-.15-.09-.3-.15-.45a1,1,0,0,0-.91-.64c-.45,0-.9-.12-1.36-.2a1.71,1.71,0,0,1-1-.57.89.89,0,0,1-.2-1c.13-.34.22-.7.34-1a.81.81,0,0,0-.18-.91,1.71,1.71,0,0,1-.45-1c-.07-.4,0-.56.34-.71.71-.29,1.43-.6,2.16-.85a19.94,19.94,0,0,1,2.14-.59,2.94,2.94,0,0,1,1.78.16.87.87,0,0,1,.38.3.66.66,0,0,1-.23,0,2.22,2.22,0,0,1-.46-.12,3.12,3.12,0,0,0-2.23.06L34.45,36.2a2.23,2.23,0,0,0,.5,1.25.93.93,0,0,1,.15,1.13c-.13.3-.21.63-.31.94a.89.89,0,0,0,.5,1.1A4.64,4.64,0,0,0,37,41a1.36,1.36,0,0,1,1.46,1.21,3.69,3.69,0,0,0,.67,1.5,2.09,2.09,0,0,0,2.29.58,7.58,7.58,0,0,0,1.92-.93c.14-.09.3-.17.44-.27a1.36,1.36,0,0,1,1.18-.16,2.71,2.71,0,0,0,2.58-.7,1.13,1.13,0,0,0,.29-.43,4,4,0,0,0-.24-3.52,6.25,6.25,0,0,0-1-1.17c-.21-.22-.44-.41-.66-.62a1.51,1.51,0,0,0-1.2-.46h-.1c-1,0-1.17-.16-1.2-1.14a12.75,12.75,0,0,1,.09-1.51,1,1,0,0,0-.53-1.08A11.89,11.89,0,0,1,41,31.06a1.57,1.57,0,0,1-.7-1.76,2.9,2.9,0,0,1,1.75-2,.85.85,0,0,1,.41-.09l1.56.11s0,.05.09.11a3.08,3.08,0,0,1-1.16.09,1.85,1.85,0,0,0-1.94,1c-.13.2-.22.42-.33.63a1.18,1.18,0,0,0,.35,1.53,10,10,0,0,0,2,1.39,1.29,1.29,0,0,1,.74,1.32c0,.65,0,1.3,0,1.95,0,.34.08.41.43.42h.33a.81.81,0,0,0,.82-.46c.39-.65.78-1.31,1.21-1.93a3,3,0,0,0,.59-1.91,1.29,1.29,0,0,1,.05-.24.51.51,0,0,1,.25.5,2.62,2.62,0,0,1-.4,1.45,7.45,7.45,0,0,1-.63.95A9,9,0,0,0,45.34,35.9Z" transform="translate(4.42 8.55)"/><path d="M9.36,45.92c.24,0,.24.22.2.4s-.14.65-.25,1a3.33,3.33,0,0,0-.05,2,.69.69,0,0,0,.71.64c.5,0,1,0,1.51.11a11.47,11.47,0,0,1,1.3.25A1.09,1.09,0,0,0,14,50.07a.67.67,0,0,1,.21-.09c.13,0,.31,0,.38-.14a2.47,2.47,0,0,0,.36-.66c0-.06-.1-.22-.19-.28a2.11,2.11,0,0,0-.5-.17,2.47,2.47,0,0,1-1.68-2.82,7.29,7.29,0,0,1,.66-1.52c.07-.14.26-.23.39-.33l.37-.28c-.29-.14-.5-.26-.72-.34a4.84,4.84,0,0,1-1.43-.82,1.62,1.62,0,0,1-.39-2,12,12,0,0,1,2.85-3.21c.16-.12.15-.12.38.07a3.11,3.11,0,0,1-.28.23,11.25,11.25,0,0,0-2.48,2.67,1.9,1.9,0,0,0-.34,1.12,1.22,1.22,0,0,0,.71,1.14l1.58.86c.44.24.46.48.06.77a1.66,1.66,0,0,0-.63.76,8,8,0,0,0-.37,1.17,1.86,1.86,0,0,0,.89,2,7.25,7.25,0,0,0,1.2.55.45.45,0,0,0,.54-.21,4.81,4.81,0,0,1,2-1.5,12.09,12.09,0,0,1,1.58-.5c.35-.11.7-.18,1.08-.27,0-.11,0-.21.05-.32a4.47,4.47,0,0,1,1-2.47c.18-.25.19-.24.63-.24l-.31.39a4.43,4.43,0,0,0-.94,1.89A1.14,1.14,0,0,0,22,46.87a1.87,1.87,0,0,0,1-.5c.22-.19.23-.18.54-.12a2.22,2.22,0,0,1-1.87.92,1.15,1.15,0,0,1-.65-.24,1.35,1.35,0,0,0-1.46-.21l-2,.74a5.07,5.07,0,0,0-1.83,1.36l.26.2s0,.06-.07,0c-.45-.11-.66.17-.83.52a2.16,2.16,0,0,1-1,1,1.46,1.46,0,0,1-1.05.17,14.58,14.58,0,0,0-2.63-.35,1.6,1.6,0,0,1-1.44-1.06,1.23,1.23,0,0,1-.1-.41,6.5,6.5,0,0,1,.26-2.11C9.19,46.53,9.27,46.23,9.36,45.92Z" transform="translate(4.42 8.55)"/><path d="M85.8,38.73c.1.48.19,1,.28,1.43.16.76.29,1.52.47,2.27a2.28,2.28,0,0,0,.79,1.27L89,45.07a5.82,5.82,0,0,1,.53.46,1.9,1.9,0,0,0,1.15.62.94.94,0,0,1,.63.35c.15.18.44.23.65.35s.58.31.87.48c0,0,.07.09.14.18a1.49,1.49,0,0,1-1,.35c-.8,0-1.61-.07-2.41-.12a2.19,2.19,0,0,1-.5-.14,3.24,3.24,0,0,0-1.53-.2.88.88,0,0,0,.07.29c.16.31.34.61.52.9a1.45,1.45,0,0,0,1,.64c1.28.27,2.57.53,3.85.78.41.08.41.06.63.22a1.14,1.14,0,0,1-.74.1c-.3,0-.59-.1-.89-.16l-2.87-.62A1.48,1.48,0,0,1,88,48.9s0-.07-.06-.08c-.65-.39-.61-1.07-.74-1.69,0-.2-.07-.4-.1-.61-.14-.74-.27-1.49-.43-2.23-.12-.56-.29-1.1-.43-1.65s-.19-.83-.25-1.26c-.09-.61-.15-1.22-.21-1.84,0-.26,0-.53,0-.8ZM87.14,45a.8.8,0,0,0,0,.62,2.8,2.8,0,0,1,.12.5.59.59,0,0,0,.54.57c.51.1,1,.17,1.55.23a1.61,1.61,0,0,0,1.11-.23,1,1,0,0,0-.22-.15,12.56,12.56,0,0,0-1.37-.37,2,2,0,0,1-1.56-1A1,1,0,0,0,87.14,45Zm-.4-1.42-.08.06a.67.67,0,0,0,.08.25,6.7,6.7,0,0,0,.63.94,5.76,5.76,0,0,0,1,.9,1.81,1.81,0,0,0,1.2.2,9.39,9.39,0,0,0-1-.78c-.31-.24-.58-.53-.88-.78S87.12,43.73,86.74,43.56Zm2.64,3.65v.16a9.45,9.45,0,0,0,3,0,.18.18,0,0,0-.1-.12L91,46.81a.66.66,0,0,0-.37,0C90.2,46.93,89.79,47.08,89.38,47.21Z" transform="translate(4.42 8.55)"/><path d="M24.13,65.76c.43-.07.82-.13,1.21-.21a3.28,3.28,0,0,0,.8-.27,7.5,7.5,0,0,0,2.28-1.67,3.41,3.41,0,0,1,.48-.37,1.75,1.75,0,0,1,.18.15,2.2,2.2,0,0,0,2.87.66c.89-.44,1.75-.95,2.62-1.42a2.2,2.2,0,0,0,.32-.21.51.51,0,0,1,.69,0,1.2,1.2,0,0,0,1,.35,4.57,4.57,0,0,0,1.21-.36,5.14,5.14,0,0,0,1.91-1.68,1.66,1.66,0,0,0,.47-.9l-.54-.38a2.79,2.79,0,0,1,.49-.13c.3,0,.6,0,.9,0a2.51,2.51,0,0,0,1.64-.65,10.21,10.21,0,0,0,.83-.78c.39-.45.57-.61,0-1.23.1-.14.25-.22.39-.09.48.46,1,.22,1.46,0a1.39,1.39,0,0,0,.35-2.45c-.65-.55-1.32-1.07-2-1.61a.52.52,0,0,1-.2-.32,1.7,1.7,0,0,1,.24.09c.76.52,1.53,1,2.26,1.57a1.65,1.65,0,0,1,0,2.58,2.85,2.85,0,0,1-1.24.56.94.94,0,0,0-.62.39,10.19,10.19,0,0,1-.8.94,3.37,3.37,0,0,1-2.23,1.23.58.58,0,0,0-.52.35l0,0a6.59,6.59,0,0,1-2,2.26,3.66,3.66,0,0,1-1.81.88,1.66,1.66,0,0,1-1.68-.53l-1.32.79c-.58.34-1.16.71-1.77,1a2.45,2.45,0,0,1-2.76-.25l-.27-.2a.38.38,0,0,0-.48,0l-.68.59a5.34,5.34,0,0,1-2.61,1.38A1.22,1.22,0,0,1,24.13,65.76Z" transform="translate(4.42 8.55)"/><path d="M78.45,52.13l-.35,0c.06-.1.08-.19.14-.23.52-.4,1-.87,1.46-1.28a9,9,0,0,0,1.38-1.52l.68-.91.08.49c.43.33.78.63,1.17.89.57.37,1.16.7,1.74,1l.52.3c-.14,0-.2,0-.24,0L82.87,50l-.25-.12a1.84,1.84,0,0,1-1-.71c0-.05-.1-.08-.21-.16,0,.13-.13.25-.11.33a.44.44,0,0,1-.15.47c-.42.45-.86.88-1.28,1.32-.17.18-.29.41-.47.58-.35.34-.72.66-1.09,1,0,0-.08.07-.09.1a7.24,7.24,0,0,1-1.13,1.89,3.22,3.22,0,0,1-.5.47l-.08-.06.34-.64c-.45.13-.55.62-1,.67.14-.56.7-.88.75-1.46a.39.39,0,0,0-.41.22A12.48,12.48,0,0,0,75,56.06c.52,0,.72-.48,1.13-.59a5.22,5.22,0,0,1-1.45,1.31,1.49,1.49,0,0,1-.37.14l-.07-.09c.1-.18.23-.36.32-.55.24-.48.47-1,.69-1.45a.37.37,0,0,0,.06-.22c-.1-.66.36-.9.84-1.09a11.05,11.05,0,0,0,2-1.1C78.29,52.37,78.34,52.26,78.45,52.13Zm-1.88,2c.25.16.45.11.56,0,.23-.34.43-.71.63-1.06A2.3,2.3,0,0,0,76.57,54.15Z" transform="translate(4.42 8.55)"/><path d="M70.5,21.35a.81.81,0,0,1-.39.87c-.93.68-1.87,1.35-2.79,2a5.41,5.41,0,0,0-.62.55l0,.11a3.74,3.74,0,0,0,.58,0c.86-.13,1.72-.26,2.58-.42a3.92,3.92,0,0,0,.85-.3.53.53,0,0,1,.59,0c-.33.2-.61.39-.9.56-.75.42-1.49.84-2.24,1.24a9.4,9.4,0,0,1-1.29.6A23.59,23.59,0,0,0,63,28.49a13.4,13.4,0,0,0-1.2.9c0-.09,0-.17,0-.21a3.49,3.49,0,0,1,1.07-1,34.31,34.31,0,0,1,4.22-2c.57-.22,1.12-.51,1.67-.77l.6-.3c.16-.08.31-.18.47-.27l0-.1c-.33.05-.66.09-1,.15s-.9.19-1.35.26a2.42,2.42,0,0,1-.76,0c-.4-.09-.47-.37-.17-.65a6.48,6.48,0,0,1,.81-.66L70,22c.09-.06.17-.13.27-.21-.14-.18-.31-.1-.45-.08-.5.08-1,.18-1.49.29s-1.17.27-1.75.43-1,0-1.52.12l0-.11c.25-.18.51-.34.74-.54a8.47,8.47,0,0,1,.67-.67c.24-.18.35-.51.69-.57-.26.65-.91,1-1.31,1.69A21.83,21.83,0,0,1,70.5,21.35Z" transform="translate(4.42 8.55)"/><path d="M47.12,30.62a.53.53,0,0,1,.49-.37,4.36,4.36,0,0,0,2.06-.78l3.07-1.81a4.27,4.27,0,0,0,.66-.45,12.9,12.9,0,0,1,2.67-1.71,1.94,1.94,0,0,0,.51-.33,3.26,3.26,0,0,1,1.07-.61l3.24-1.34c.76-.31,1.53-.61,2.27-.95.89-.41,1.76-.87,2.64-1.31a.7.7,0,0,1,.37-.08A.74.74,0,0,1,66,21a18.43,18.43,0,0,1-4,2c-.4.15-.78.36-1.17.53-.7.32-1.42.6-2.12.94-1,.49-2.05,1-3.05,1.54a13.19,13.19,0,0,0-1.62,1.05,28,28,0,0,1-2.88,1.83c-.71.41-1.41.84-2.13,1.25a1.86,1.86,0,0,1-.56.24C48.06,30.5,47.61,30.55,47.12,30.62Z" transform="translate(4.42 8.55)"/><path d="M84.92,33.05a2.86,2.86,0,0,1-.57-1.78c0-.78,0-1.55,0-2.32,0-.15.06-.34-.23-.37,0,.19-.11.38-.15.57a3.44,3.44,0,0,1-.61,1.28.44.44,0,0,1-.69.12,1.21,1.21,0,0,1-.49-.62c-.17-.53-.38-1-.58-1.56a3.88,3.88,0,0,0-.19-.34c-.09.31-.16.52-.21.74s-.14.55-.2.83a.36.36,0,0,1-.36.31.61.61,0,0,1-.41-.26,1.72,1.72,0,0,1-.19-.48c-.11-.31-.21-.63-.32-.93a.49.49,0,0,1,.26-.71c.06.39.11.76.17,1.12a1.42,1.42,0,0,0,.45,1l.27-.71c.13-.33.23-.66.38-1s.33-.32.51,0a6.12,6.12,0,0,1,.36.83c.14.35.26.71.39,1.07a.54.54,0,0,0,.47.42c.69-.72.7-1.76,1.24-2.67a4.67,4.67,0,0,1,.2.5,11.22,11.22,0,0,1,.32,3,6.16,6.16,0,0,0,.25,1.39C85,32.69,85.06,32.85,84.92,33.05Z" transform="translate(4.42 8.55)"/><path d="M75.51,27.75c-.08.35-.34.38-.54.46a6.91,6.91,0,0,1-.77.25c-.21.07-.32.19-.27.42s.09.62.16.93a1,1,0,0,0,.2.28c.08.11.17.21.26.32l-.06.08-.44-.14c0,.67,0,1.35,0,2,0,.23,0,.48-.28.61,0,0-.08.08-.07.11.14.41-.32.61-.33,1,0,0,0,0-.12.08a1,1,0,0,1,0-.37,6.46,6.46,0,0,1,.34-1.08,2.12,2.12,0,0,0,.16-1.29,3.39,3.39,0,0,1,0-.71,6.61,6.61,0,0,0-.24-2.05c-.63.06-1.24.07-1.82.18a4.36,4.36,0,0,1-1.69-.06,5.53,5.53,0,0,1-.9-.28c-.46-.16-.59-.13-.92.22-.14.14-.22.36-.5.3a1.17,1.17,0,0,1,.41-.74.67.67,0,0,1,.7-.15l1,.3a8.14,8.14,0,0,0,2.74.15,8.56,8.56,0,0,0,2.69-.71C75.22,27.81,75.37,27.79,75.51,27.75Z" transform="translate(4.42 8.55)"/><path d="M16.64,53.41a1.3,1.3,0,0,1-.18.15,4.4,4.4,0,0,0-1.89,2.35,10.45,10.45,0,0,0-.75,2.73,2.27,2.27,0,0,0,1,2.26,3.25,3.25,0,0,0,1.53.7,8,8,0,0,0,2.54-.13,7.76,7.76,0,0,1,1.36-.25l-.26.13a7.7,7.7,0,0,1-4.48.31,1.09,1.09,0,0,1-.43-.18c-.4-.32-.81-.65-1.19-1a1.38,1.38,0,0,1-.44-1.25c.14-.91.3-1.81.51-2.7a6,6,0,0,1,1.86-3A.57.57,0,0,1,16.64,53.41Z" transform="translate(4.42 8.55)"/><path d="M54.47,26c-.13.08-.26.18-.39.25a1.88,1.88,0,0,0-.77.6A.8.8,0,0,1,53,27c-1.45.76-2.91,1.51-4.36,2.28a5.49,5.49,0,0,0-.69.5.8.8,0,0,1-.37.18l.19-.63H46.34c.34-.35.7-.08,1-.21a1.87,1.87,0,0,0-.77-1,11.91,11.91,0,0,0-1.14-.63c.39-.12.68.12,1,.14a.76.76,0,0,0-.62-1c-.2,0-.4,0-.61-.08s-.19-.06-.29-.09,0-.11,0-.12a1.91,1.91,0,0,1,1.57.33.59.59,0,0,1,.21.68.65.65,0,0,0,.22.72c.24.25.44.54.66.81a.45.45,0,0,0,.62.17,1.54,1.54,0,0,0,.35-.15c1.29-.82,2.7-1.42,4-2.14.42-.23.82-.48,1.23-.71.19-.11.38-.19.56-.29Z" transform="translate(4.42 8.55)"/><path d="M20.75,60.9a.46.46,0,0,1,.36.4,9.89,9.89,0,0,0,.33,1.43,2.71,2.71,0,0,0,.5.73c.13.18.31.32.45.49a2.17,2.17,0,0,0,.84.59,7.51,7.51,0,0,1,1.05.55,1,1,0,0,1,.19.21,1.8,1.8,0,0,1-.87.29c-.08,0-.2-.06-.28-.13L21.7,64a3.15,3.15,0,0,1-.9-1.74,6.91,6.91,0,0,1-.11-.9A2.77,2.77,0,0,1,20.75,60.9Z" transform="translate(4.42 8.55)"/><path d="M62.17,29.47a.94.94,0,0,1,.23-.1c.62-.15,1.24-.27,1.85-.45a7.82,7.82,0,0,0,1.33-.48,21.3,21.3,0,0,1,2.67-1c.71-.22,1.38-.55,2.07-.82.42-.17.85-.34,1.28-.49a1.33,1.33,0,0,1,.4,0l0,.1c-.18.1-.36.21-.55.3l-2.55,1.15c-.15.07-.3.18-.48,0s-.2,0-.29,0c-.8.31-1.58.64-2.38.94a15.22,15.22,0,0,1-3.38.91h-.22Z" transform="translate(4.42 8.55)"/><path d="M74.91,31.78l.46.54a1.14,1.14,0,0,0,.4-.79c.17-.87.29-1.75.43-2.62.06-.42.08-.85.16-1.27a25.31,25.31,0,0,0,.1-3.26c0-.44,0-.88,0-1.33a.46.46,0,0,1,.18-.26c.14.52.41,1,.12,1.57a.79.79,0,0,0-.11.36c0,.58,0,1.16,0,1.74a15.22,15.22,0,0,1-.11,1.79c-.14,1-.34,2.06-.51,3.09a5.19,5.19,0,0,1-.18.78.88.88,0,0,1-.32.37c-.26.15-.45.06-.56-.22S75,32,74.91,31.78Z" transform="translate(4.42 8.55)"/><path d="M78.1,30.9c.39-.12.55-.29.59-.63a3.15,3.15,0,0,1,.44-1.39,3.24,3.24,0,0,1,.27-.37,1.68,1.68,0,0,1,0,.3c-.21.66-.4,1.33-.63,2s-.52.56-.83.15a1.82,1.82,0,0,1-.33-.77c-.13-.84-.23-1.69-.33-2.54-.11-1-.21-2.08-.32-3.11a.38.38,0,0,1,0-.18,2.74,2.74,0,0,1,.33,1.11c.09.86.17,1.73.29,2.59a14.86,14.86,0,0,1,.28,2.11A3.36,3.36,0,0,0,78.1,30.9Z" transform="translate(4.42 8.55)"/><path d="M85.86,51.1l.49,0,1.27-.14a5.35,5.35,0,0,1,1,0,15,15,0,0,0,3,.07c.29,0,.58-.12.88-.17a.37.37,0,0,1,.25,0,1.44,1.44,0,0,1-.77.38,9.92,9.92,0,0,1-2.93.06,5.87,5.87,0,0,0-2.21.07,1.09,1.09,0,0,1-1-.1Z" transform="translate(4.42 8.55)"/><path d="M78.28,53.56a1,1,0,0,1,.42-.65c.3-.22.62-.43.94-.63a2.5,2.5,0,0,0,1-.94,5.43,5.43,0,0,1,.69-1A3.18,3.18,0,0,1,80.47,52c-.61.5-1.24,1-1.87,1.44A2.24,2.24,0,0,1,78.28,53.56Z" transform="translate(4.42 8.55)"/><path d="M85.65,37.82c-.19-.15-.18-.15-.17-.68a5.67,5.67,0,0,0-.06-.71c0-.25,0-.5,0-.75s0-.48,0-.71-.07-.5-.11-.75-.08-.45-.13-.68l.11,0a2.59,2.59,0,0,1,.17.38,10.55,10.55,0,0,1,.3,3C85.67,37.2,85.66,37.49,85.65,37.82Z" transform="translate(4.42 8.55)"/><path d="M73.24,36.25a11.05,11.05,0,0,1-.48,4.32.83.83,0,0,1-.07-.65c.1-.51.23-1,.31-1.52s.13-1,.18-1.45Z" transform="translate(4.42 8.55)"/><path d="M42.79,23.71a1,1,0,0,1,1.05.82,1.13,1.13,0,0,1-.33,1.27,2.31,2.31,0,0,1,0-.32c0-.16.05-.31.08-.47a1,1,0,0,0-.41-1Z" transform="translate(4.42 8.55)"/><path d="M68,29.05c.5.08,1,.19,1.51.23s1,0,1.49,0a4.69,4.69,0,0,1-3-.1Z" transform="translate(4.42 8.55)"/><path d="M73.27,40.77a23.12,23.12,0,0,1,.09,2.47s-.06.09-.1.15A3.33,3.33,0,0,1,73.27,40.77Z" transform="translate(4.42 8.55)"/><path d="M79.22,43.71A3.2,3.2,0,0,1,79,46.14a3.26,3.26,0,0,1,.11-1.22c0-.4,0-.8,0-1.21Z" transform="translate(4.42 8.55)"/><path d="M49.44,46.4a2.88,2.88,0,0,1-1.22-1.25c.11-.13.24-.06.32,0A4,4,0,0,1,49.44,46.4Z" transform="translate(4.42 8.55)"/><path d="M15,52.94a1.14,1.14,0,0,1-1-1.57A1.94,1.94,0,0,0,15,52.94Z" transform="translate(4.42 8.55)"/><path d="M35,28.72c.29-.55.63-.6,1.27-.14-.12,0-.21.06-.27,0a.71.71,0,0,0-.87.1.13.13,0,0,1-.09,0Z" transform="translate(4.42 8.55)"/><path d="M73.26,34.46c.18.23.18.23.06,1.37A1.92,1.92,0,0,1,73.26,34.46Z" transform="translate(4.42 8.55)"/><path d="M86.17,38.56,86,37.42c.14,0,.22.06.24.09A1.22,1.22,0,0,1,86.17,38.56Z" transform="translate(4.42 8.55)"/><path d="M74.63,31.17l.1-.38.62.82A2.11,2.11,0,0,1,74.63,31.17Z" transform="translate(4.42 8.55)"/><path d="M52.68,37.8a2.31,2.31,0,0,1-1.09.44A2.18,2.18,0,0,1,52.68,37.8Z" transform="translate(4.42 8.55)"/><path d="M86.63,39.68a2.44,2.44,0,0,1,.23,1.13,2.15,2.15,0,0,1-.21-1.14Z" transform="translate(4.42 8.55)"/><path d="M76.21,49l-.49.44c.07-.32.07-.32.42-.52Z" transform="translate(4.42 8.55)"/><path d="M77.14,48l-.51.59-.1-.09.5-.59Z" transform="translate(4.42 8.55)"/><path d="M87.05,41.7l-.21-.56A.4.4,0,0,1,87.05,41.7Z" transform="translate(4.42 8.55)"/><path d="M86.65,39.67a.63.63,0,0,1-.24-.72,1,1,0,0,1,.22.73Z" transform="translate(4.42 8.55)"/><path d="M73.5,47.11l.17-.65C73.77,46.74,73.77,46.74,73.5,47.11Z" transform="translate(4.42 8.55)"/><path d="M71.73,46l-.5-.43c.3,0,.3,0,.49.44Z" transform="translate(4.42 8.55)"/><path d="M28.51,69.56" transform="translate(4.42 8.55)"/><path d="M45,44.53c.21-.18.33-.15.48,0C45.32,44.73,45.18,44.64,45,44.53Z" transform="translate(4.42 8.55)"/><path d="M67.48-.08l-.38,0V-.18l.38,0Z" transform="translate(4.42 8.55)"/><path d="M87.08,49.49l.17-.39.11,0-.17.4Z" transform="translate(4.42 8.55)"/><path d="M100.85.48l.44,0v.1l-.43,0Z" transform="translate(4.42 8.55)"/><path d="M76.42,35.84l-.12-.16,0,0,.15.13Z" transform="translate(4.42 8.55)"/><path d="M96.05,74.1l-.21.06s0-.12,0-.12L96,74Z" transform="translate(4.42 8.55)"/><path class="cls-7" d="M64.11,47.94c.84-.07,1.56-.12,2.28-.2.9-.09,1.8-.17,2.69-.31a14.45,14.45,0,0,0,1.7-.4c.73-.22,1.44-.47,2.17-.72a2.41,2.41,0,0,1-.27,1.77.55.55,0,0,1-.43.24c-.73.08-1.45.15-2.18.18-.47,0-.95-.08-1.42-.07-1.1,0-2.21.06-3.32.1a1.56,1.56,0,0,1-1-.3A1.86,1.86,0,0,1,64.11,47.94Z" transform="translate(4.42 8.55)"/><path class="cls-7" d="M72.27,50c0,.56-.1.75-.51.82A1.66,1.66,0,0,1,72.27,50Z" transform="translate(4.42 8.55)"/><path class="cls-7" d="M77.58,49c.31-.15.41-.09.39.21Z" transform="translate(4.42 8.55)"/><path class="cls-7" d="M87.14,45a1,1,0,0,1,.12.14,2,2,0,0,0,1.56,1,12.56,12.56,0,0,1,1.37.37,1,1,0,0,1,.22.15,1.61,1.61,0,0,1-1.11.23c-.52-.06-1-.13-1.55-.23a.59.59,0,0,1-.54-.57,2.8,2.8,0,0,0-.12-.5A.8.8,0,0,1,87.14,45Z" transform="translate(4.42 8.55)"/><path class="cls-7" d="M86.74,43.56c.38.17.6.54.91.79s.57.54.88.78a9.39,9.39,0,0,1,1,.78,1.81,1.81,0,0,1-1.2-.2,5.76,5.76,0,0,1-1-.9,6.7,6.7,0,0,1-.63-.94.67.67,0,0,1-.08-.25Z" transform="translate(4.42 8.55)"/><path class="cls-7" d="M89.38,47.21c.41-.13.82-.28,1.24-.4a.66.66,0,0,1,.37,0l1.33.47a.18.18,0,0,1,.1.12,9.45,9.45,0,0,1-3,0Z" transform="translate(4.42 8.55)"/><path class="cls-7" d="M76.57,54.15A2.3,2.3,0,0,1,77.76,53c-.2.35-.4.72-.63,1.06C77,54.26,76.82,54.31,76.57,54.15Z" transform="translate(4.42 8.55)"/><rect class="cls-10" x="50.59" y="30.92" width="16" height="4" rx="1.21" ry="1.21"/><path class="cls-10" d="M73.62,38.23h0a.3.3,0,0,0-.3.28l.1,7.47a.29.29,0,0,0,.3.27h0A.3.3,0,0,0,74,46l-.1-7.47a.29.29,0,0,0-.3-.27Z" transform="translate(4.42 8.55)"/><path class="cls-10" d="M62.61,23.42a.61.61,0,0,0-.52.63h-.3l.07-.82h.75Z" transform="translate(4.42 8.55)"/><path class="cls-10" d="M43.47,23.62a.68.68,0,0,1,.54.68h.28l0-.82-.75,0Z" transform="translate(4.42 8.55)"/><path d="M51.14,24.22h0a.3.3,0,0,1,.29-.28l3.61,0a.27.27,0,0,1,.3.26h0a.29.29,0,0,1-.3.28l-3.6,0A.29.29,0,0,1,51.14,24.22Z" transform="translate(4.42 8.55)"/><ellipse class="cls-11" cx="61.45" cy="32.73" rx="0.49" ry="0.44"/><ellipse class="cls-12" cx="61.45" cy="32.73" rx="0.34" ry="0.31"/><circle class="cls-11" cx="61.45" cy="32.73" r="0.04"/><path class="cls-10" d="M32.66,34.44l0-2.11A.32.32,0,0,1,33,32h0a.34.34,0,0,1,.35.3l0,2.11a.31.31,0,0,1-.33.31h0A.33.33,0,0,1,32.66,34.44Z" transform="translate(4.42 8.55)"/><path class="cls-10" d="M32.83,41.7l-.06-4.48a.33.33,0,0,1,.34-.31h0a.33.33,0,0,1,.34.3l.06,4.48a.33.33,0,0,1-.34.31h0A.32.32,0,0,1,32.83,41.7Z" transform="translate(4.42 8.55)"/><path class="cls-10" d="M32.92,48.08l-.06-4.48a.31.31,0,0,1,.33-.31h0a.32.32,0,0,1,.34.3l.06,4.49a.32.32,0,0,1-.33.3h0A.31.31,0,0,1,32.92,48.08Z" transform="translate(4.42 8.55)"/></g></g><g id="Vrstva_10" data-name="Vrstva 10"><g class="cls-13"><g class="cls-14"><rect class="cls-3" x="-1.2" y="-4.33" width="98.7" height="101.55" transform="translate(1.48 11.79) rotate(-3.75)"/><path class="cls-4" d="M57.7,5.29s3.54,7.11,19.15,10.28,25,36.1,9.69,38.15S22.74,83.06,11.9,74.34-13.26,35.1,4.39,22.41,23.41-.85,37.79-.74,57.7,5.29,57.7,5.29Z" transform="translate(4.42 8.55)"/><polygon class="cls-5" points="21.6 5.12 7.62 108.81 78.53 104.17 53.12 3.06 21.6 5.12"/><rect class="cls-6" x="32.68" y="-0.46" width="1.97" height="14.08" transform="translate(4.06 10.76) rotate(-3.75)"/><rect class="cls-6" x="35.31" y="53.75" width="2.96" height="16.09" transform="translate(0.46 11.08) rotate(-3.75)"/><rect class="cls-6" x="37.21" y="82.84" width="2.96" height="16.09" transform="translate(-1.44 11.27) rotate(-3.75)"/><path class="cls-7" d="M43.84,26.07l9.32-5S62,16.81,62,15.81s.48,1.25-.65,2.2,4.59-1.43,4.59-1.43-5,4.63-1.88,3.77l3.13-.85-8.54,5.6,8.13-3.4-3.2,3.08s-.13-2,2.89-1.2,4.36-.64,4.36-.64l-4.17,2.25L52.84,32.73,47.45,35.9l-6.37-6.63Z" transform="translate(4.42 8.55)"/><path class="cls-15" d="M43.12,30.14s5.91-.38,6.11,2.63-1.47,2.14-1.47,2.14,5.73,2.61,1.86,3.88c0,0,1.18,2.94-1.77,3.13,0,0,5.56,2.81,0,4.61,0,0-.61,1.48-2.65.6L41.41,49.4s6.11,2.62,1.25,4c0,0-.72,4.07-3.74,3.26,0,0-.66,5.09-4.73,3.34,0,0-4.66,4.33-5.84,1.39,0,0-2.69,4.2-5.84,1.39s-2.24-3.89-2.24-3.89-6.15,3.31-7.14-.09,1.76-6.61,1.76-6.61a3,3,0,0,1-2.79-2.43s-4.17,1.88-4.37-1.13l-.2-3s-3.18-.74-3.16-1.78,1.72-5.18,1.72-5.18S3.27,35.3,5,34.42s3.64-2,3.64-2a3.13,3.13,0,0,1,1.71-4.14c2.89-1.2,2.94-.28,2.94-.28s1.78-3.05,2.77-3.12c0,0-.13-2,2.89-1.2,0,0-.49-3.43,1-4.82s4.55-.58,4.55-.58.33-3,3.09-2.17,2.69-.22,2.82,1.78c0,0,8.86-.58,8.21,4.5,0,0,.85-2.07,1-.06,0,0,4,.75,4.07,1.75l.26,4,.14,2Z" transform="translate(4.42 8.55)"/><path class="cls-7" d="M70,24.36,70.17,27l-.27,1.52-.05,1.88.12,2-.3,3,.57,1,.39,6-.85,2.07-.86,2.07-1.18,1.93,2.05-1.46,1.1-.6.92-1.07,2.69-1.24,1.12-1-.72,4.08-2.69,4.2L77.85,47l1.71-4.14s.51,2.12,5.28,2.24,5.69-.94,5.69-.94-5.9.55-6.11-2.63A62,62,0,0,0,83,34.59a6.69,6.69,0,0,1-.13-2,13.54,13.54,0,0,0-1.31-4.95,13.54,13.54,0,0,1-1.31-4.95l-.86,2.07-.84,0-1.26-1.84-.92,1.07-.49-1.44L74.5,26.07l-1.44-7-.53,7.09-.91,1.07-1.19-2.95Z" transform="translate(4.42 8.55)"/><path d="M8.28,32.16c0-.23,0-.47,0-.71a2.11,2.11,0,0,1,.64-1.68c.52-.52,1.08-1,1.64-1.48a2.92,2.92,0,0,1,1.88-.63.94.94,0,0,0,.86-.52A4.16,4.16,0,0,1,15,25.51a1.78,1.78,0,0,0,.52-.47c.27-.32.51-.68.77-1a2.49,2.49,0,0,1,2.16-1,2.54,2.54,0,0,0,.26,0,3.53,3.53,0,0,0,0-.48,3.07,3.07,0,0,1,.25-2.12,4.78,4.78,0,0,1,1.6-1.95,2.63,2.63,0,0,1,1.28-.55,7.05,7.05,0,0,1,2.38,0c.38.09.58-.06.68-.46a1.85,1.85,0,0,0,0-.23.9.9,0,0,1,.57-.81A6.53,6.53,0,0,1,29,15.77,1.48,1.48,0,0,1,30.3,17c.05.25.08.51.13.76s.16.41.48.41c.93,0,1.87,0,2.81,0a8.57,8.57,0,0,1,2.14.14,3.88,3.88,0,0,1,2.81,3.78s0,.08,0,.14c-.18,0-.18-.15-.21-.27a7.36,7.36,0,0,0-.21-.93,4.05,4.05,0,0,0-1.41-2,3.42,3.42,0,0,0-2-.56c-1.31,0-2.62,0-3.93,0a2.52,2.52,0,0,0-1.64.46,1.18,1.18,0,0,0-.29.3c-.29.46-.24.61.24.84l.25.11c-.14.11-.22.23-.33.28A12.06,12.06,0,0,0,26,22.57c-.52.42-1,.87-1.53,1.33s-.45.66,0,1.08l.74.66a.57.57,0,0,1,.07.91A7.22,7.22,0,0,0,24,29.16a.69.69,0,0,0,.12.68c.3.34.62.67.93,1s.44.41.66.61a6.26,6.26,0,0,1,1.11,1.92c.18.33.32.69.5,1a.64.64,0,0,0,.73.39c.28,0,.56-.05.84-.07a2.06,2.06,0,0,1,1.14.21,5.22,5.22,0,0,0,.88.25.66.66,0,0,1-.93.15,1.82,1.82,0,0,0-1.57-.2c-.77.19-1.16,0-1.49-.78s-.52-1.26-.86-1.85a6.2,6.2,0,0,0-.92-1.07c-.32-.34-.68-.66-1-1a1.5,1.5,0,0,1-.37-1.62,8.19,8.19,0,0,1,1-2.05c.1-.14.21-.28.3-.43s.14-.34-.08-.52-.56-.46-.82-.71a.79.79,0,0,1,0-1.33c.15-.14.32-.27.48-.4a1.53,1.53,0,0,0-1.77-.54,11.87,11.87,0,0,0-4,2.07,1.65,1.65,0,0,0-.7,1.43,1.5,1.5,0,0,0,.77,1.23l1.23.92a1.51,1.51,0,0,1-.26.23,7.4,7.4,0,0,0-1.83,1.47c-.66.67-1.31,1.36-1.95,2.06a2.33,2.33,0,0,0-.63,1.15A2.13,2.13,0,0,0,16,35.21a3.1,3.1,0,0,0,2.25,1.22c.1,0,.2,0,.38.09-.12.1-.18.18-.25.19a1.52,1.52,0,0,0-1,.82,16.36,16.36,0,0,0-.94,1.81A1.68,1.68,0,0,0,16.45,41a1.06,1.06,0,0,0,.41.38,3.24,3.24,0,0,0,1.6.26,5.17,5.17,0,0,1,.56,0c-.26.33-.54.25-.78.25a6.36,6.36,0,0,1-1.07-.11,1.53,1.53,0,0,1-1.31-1.6,2.71,2.71,0,0,1,.53-1.78,11.05,11.05,0,0,0,.68-1.09c.14-.22.31-.43.48-.67-.36-.18-.76-.35-1.13-.57a2.65,2.65,0,0,1-1.23-3.05,2.58,2.58,0,0,1,.44-.73c.95-1.06,1.9-2.1,2.88-3.13a2,2,0,0,1,1-.62.78.78,0,0,0,.19-.12l-.31-.24-.63-.4a1.85,1.85,0,0,1-.07-3.15,12.12,12.12,0,0,1,3-1.76c.35-.13.7-.27,1.06-.38a1.58,1.58,0,0,1,1.69.37c.31.32.36.32.68,0a17.46,17.46,0,0,1,2.65-2c.28-.19.59-.34.91-.52l-.1-.28a1,1,0,0,1,.53-1.35c.25-.12.52-.22.78-.33s.3-.16.25-.46-.11-.5-.15-.76A1.2,1.2,0,0,0,28.72,16a6.18,6.18,0,0,0-3,.58.93.93,0,0,0-.55.61c-.06.16-.1.33-.15.5-.13.41-.24.51-.68.5s-1.18,0-1.78-.09A3.07,3.07,0,0,0,20,19.29a4.16,4.16,0,0,0-1.12,2.31,1.94,1.94,0,0,0,.41,1.55c.06.08.11.17.23.36a4.38,4.38,0,0,1-.53-.12,2,2,0,0,0-1.84.22,3.85,3.85,0,0,0-1.44,1.67l.36,0s0,.06,0,.06l-1,.41a3.05,3.05,0,0,0-1.64,1.56.86.86,0,0,1-.75.54,11.68,11.68,0,0,0-1.3.2,1,1,0,0,0-.38.16,14.89,14.89,0,0,0-1.76,1.49A2.4,2.4,0,0,0,8.58,32c.29,0,.58-.05.87-.11a3.69,3.69,0,0,1,2,.12c.34.13.41.07.58-.26a3.24,3.24,0,0,1,.41-.63,7.44,7.44,0,0,1,1.66-1.56,3.82,3.82,0,0,1,.73-3.3,3.53,3.53,0,0,1-.3,1.06A4,4,0,0,0,14.3,29c0,.38.07.42.42.37l1.43-.26a1.22,1.22,0,0,1,1,.17c-.48.06-.86.13-1.24.14a4,4,0,0,0-3.17,1.77l-.5.63c-.31.38-.31.4,0,.88l-.45-.15A3.66,3.66,0,0,0,12,36c-.3.07-.4-.11-.49-.32a3.69,3.69,0,0,1,0-2.88c.14-.37.13-.39-.21-.48a2.71,2.71,0,0,0-1.8,0,3.89,3.89,0,0,1-.51.08c-.15,0-.33.06-.19.44a.58.58,0,0,0-.8-.15c-.46.27-1,.48-1.41.75a4.34,4.34,0,0,0-1.74,1.81,2,2,0,0,0,.55,2.52c.19.15.4.27.58.41s.3.36.14.61a11,11,0,0,0-1,2.95c-.14.54-.24,1.08-.34,1.63a1.13,1.13,0,0,0,1,1.44c.31.06.62.07.93.1l.65.06v.1c-.1,0-.2.12-.3.11A10.31,10.31,0,0,1,5.4,45a1.42,1.42,0,0,1-1-1.61c.11-.69.24-1.38.36-2.07a.5.5,0,0,1,.09-.21,3.38,3.38,0,0,0,.49-1.23c.1-.32.24-.62.36-.93s.15-.34.25-.56c-.17-.1-.31-.2-.46-.27A2.29,2.29,0,0,1,4.57,35a5.29,5.29,0,0,1,1.88-1.88C7,32.82,7.63,32.51,8.28,32.16Z" transform="translate(4.42 8.55)"/><path d="M47.43,35.2a1.22,1.22,0,0,0,.55-.73,1.66,1.66,0,0,1,.44-.48,1.5,1.5,0,0,0,.48-1.88,2.36,2.36,0,0,0-1.3-1.31,3.18,3.18,0,0,0-.86-.21,7.74,7.74,0,0,0-1.08,0,1.26,1.26,0,0,1-.77-.28l.58,0a6.22,6.22,0,0,1,2.27.24,2.25,2.25,0,0,1,.95.68,7.24,7.24,0,0,1,.57.87,1.18,1.18,0,0,1,.08,1.14,2.57,2.57,0,0,0-.09.29,8.34,8.34,0,0,0,4.12-1l4.91-2.77c1.17-.66,2.33-1.34,3.51-2,1.34-.72,2.69-1.42,4-2.12l1.43-.71a1.5,1.5,0,0,0,.48-.3,2,2,0,0,1,1.33-.48,1.52,1.52,0,0,1-.26.25c-.38.26-.76.5-1.14.75,0,0-.08.06-.13.06a8.64,8.64,0,0,0-2.68,1.21c-1.42.72-2.82,1.48-4.21,2.26-1.7.94-3.37,1.93-5.06,2.89l-1.8,1a1.83,1.83,0,0,0-.25.22c.77.1,1.44-.27,2.17-.1a.31.31,0,0,1-.32.22,15.44,15.44,0,0,1-1.91.19,3,3,0,0,0-1.59.5c-.53.32-1.07.65-1.59,1a3.23,3.23,0,0,0-.4.35c-.18-.15-.2-.21,0-.36s.7-.47,1-.71a.65.65,0,0,0,.24-.27l-.47,0c-.39,0-.78.12-1.16.12a.92.92,0,0,0-.72.28c-.19.2-.36.41-.6.68.37.24.66.45,1,.62a4.61,4.61,0,0,1,1.53,1.31,2.61,2.61,0,0,1,.17.28,1,1,0,0,1-.36,1.42c-.18.15-.38.27-.61.44,0,.17.09.34.15.52a9.65,9.65,0,0,1,.3,1.05,1.52,1.52,0,0,1-.11.69,1.55,1.55,0,0,1-1.12,1.11.52.52,0,0,0-.13.06.84.84,0,0,0,0,.1l.49.3c.18.11.36.2.53.31a1.07,1.07,0,0,1,.52,1.41A3.64,3.64,0,0,1,47.9,47a12,12,0,0,1-1.17.33,1.47,1.47,0,0,1-1-.13c-.45-.23-.73-.08-1,.28a4.48,4.48,0,0,1-1.89,1.35,4,4,0,0,1-.92.16.86.86,0,0,1-.85-.47L40.63,48a1.26,1.26,0,0,0-.08.75,1.55,1.55,0,0,1-.21.91A2.73,2.73,0,0,1,35.6,50l-.17-.24c-.34.41-.66.81-1,1.2a6,6,0,0,1-1.72,1.46,4.28,4.28,0,0,1-1.09.38.89.89,0,0,1-.59-.1,2.93,2.93,0,0,1-1.52-1.48c-.18-.38-.43-.73-.67-1.15-.18.1-.35.21-.53.3a3.92,3.92,0,0,1-3.38.36,2.81,2.81,0,0,1-1.54-1.18A2,2,0,0,1,23.25,48a8.46,8.46,0,0,1,1-2.47c.32-.53.27-.65-.22-1.07a8.36,8.36,0,0,1-1.43-1.3,2.12,2.12,0,0,1-.1-2.5,12.06,12.06,0,0,1,1.62-2.09c.54-.54,1-1.18,1.5-1.76a6.05,6.05,0,0,1,.78-.82,1.41,1.41,0,0,1,.63-.26c.28-.05.35,0,.43.4a1.33,1.33,0,0,0-.54-.09,1.1,1.1,0,0,0-.42.36l-1.52,1.68a21.5,21.5,0,0,0-2.05,2.6,2,2,0,0,0,.27,2.63c.31.31.66.58,1,.88a1.72,1.72,0,0,1,.27.27c.45.48.48.69.13,1.25a6.61,6.61,0,0,0-.95,2.57,1.74,1.74,0,0,0,.85,1.8,3.21,3.21,0,0,0,2.23.54,10.8,10.8,0,0,0,1.45-.5c.18-.07.34-.16.52-.21a.58.58,0,0,1,.79.32c.24.42.47.85.72,1.27a1.8,1.8,0,0,0,.3.37,1.6,1.6,0,0,0,2.17.22,10.51,10.51,0,0,0,2.52-2.46c.11-.14.25-.26.41-.43a3.5,3.5,0,0,1,.35.45,2.37,2.37,0,0,0,2.41,1.23A2,2,0,0,0,39.75,50a1.65,1.65,0,0,0,.4-1.37.93.93,0,0,1,.12-.58c.25-.45.53-.9.8-1.34a3.52,3.52,0,0,0,.13-3.25,1.44,1.44,0,0,0-.84-.8l-.4-.2a.58.58,0,0,1,.6-.06,1.63,1.63,0,0,1,1,1.05A4.46,4.46,0,0,1,41.74,46a4.39,4.39,0,0,1-.63,1.33c-.28.43-.27.45.06.87a1.23,1.23,0,0,0,1.67.34,7,7,0,0,0,1.65-1.32l.43-.43a.39.39,0,0,1,.59,0,1.58,1.58,0,0,0,1.6.22,11.71,11.71,0,0,0,1.6-.66,2.67,2.67,0,0,0,1.51-2.1,1.31,1.31,0,0,0-.72-1.28c-.36-.15-.74-.26-1.1-.4a3,3,0,0,1-.44-.21v-.1c.2,0,.39-.09.59-.1A1.51,1.51,0,0,0,49.9,41a1.87,1.87,0,0,0-.38-2l-.27-.27.55-.21a1.05,1.05,0,0,0,.6-1.72,4.06,4.06,0,0,0-1.46-1.24,2,2,0,0,1-.25-.13c-.34-.29-.68-.45-1.06-.09,0,0-.09,0-.14,0Z" transform="translate(4.42 8.55)"/><path d="M69.11,41.19l.34.25.69-.3c.22-.09.28-.24.21-.49a9.13,9.13,0,0,1,0-2.1.64.64,0,0,1,.24.63c0,.59,0,1.18.09,1.77s.15.9.2,1.35a1.57,1.57,0,0,1,0,.61,6.83,6.83,0,0,1-.29.75,2,2,0,0,0-.17,1.25,1,1,0,0,1-.06.51c-.07.22-.18.43-.31.73a4.62,4.62,0,0,0,.51-.13,7,7,0,0,0,1.59-1c.22-.17.41-.43.76-.24.07,0,.21,0,.31-.07a5.33,5.33,0,0,0,2.06-1.52.81.81,0,0,0,.15-.34c.08-.25,0-.53.25-.75.07-.07,0-.28,0-.4a3.13,3.13,0,0,1-.09-1.14c0-.5,0-1,0-1.52,0-.09,0-.19.05-.29h.11c0,.24.11.48.15.72s.11.76.14,1.14a.69.69,0,0,0,.33.66,10.91,10.91,0,0,0-.37,2.37c0,.27-.11.52-.15.79a1.88,1.88,0,0,0,0,.41,4.52,4.52,0,0,1-.27,1.68c0,.07-.09.12-.18.23a1.19,1.19,0,0,1,.08-.76,3.31,3.31,0,0,0,.12-.7c-.36.27-.41.7-.56,1.08a3.65,3.65,0,0,0-.4,1.15c.34,0,.37-.29.53-.44a.81.81,0,0,1,.68-.27,2.71,2.71,0,0,1-.2.27c-.42.3-.84.61-1.27.89a1.29,1.29,0,0,1-.85.23c-.2,0-.27-.13-.25-.32a1,1,0,0,1,.45-.71l-.14.68.43-.06a.42.42,0,0,0,.37-.43,2.74,2.74,0,0,1,.18-.62c.06-.18.14-.36.2-.54.16-.56.31-1.12.49-1.68a1.84,1.84,0,0,1,.28-.36c-.37-.11-.55,0-.71.29-.08.15-.15.31-.23.46a1.35,1.35,0,0,1-.16.2l.09-.69c-.32.55-.94.58-1.42.83s-1,.44-1.43.69a2.06,2.06,0,0,0-.6.45A8,8,0,0,1,69,47.92a4.91,4.91,0,0,0-.78.6,2.1,2.1,0,0,1-1,.44l.11-.47a.62.62,0,0,0,.83-.32l-.59.18a1.17,1.17,0,0,1,.83-.57A1.81,1.81,0,0,0,69,47.6c.44-.27.87-.57,1.29-.87a.62.62,0,0,0,.21-.3c-.61.08-1.25,0-1.57.77-.08.19-.31.32-.48.47l-.09-.07c.22-.47.42-1,.65-1.43s.59-1.19.86-1.8A2.61,2.61,0,0,0,70,43.8a1.72,1.72,0,0,0-.36,0c-.23,0-.46.09-.69.13a12.29,12.29,0,0,1-1.91.15,12.79,12.79,0,0,0-2,.22,10,10,0,0,1-2.61.13,1.22,1.22,0,0,1-1.08-.88,3.07,3.07,0,0,0,.6-.16,8.86,8.86,0,0,1,2-.4c.22,0,.43-.1.64-.15l2.7-.61a7.9,7.9,0,0,0,1.54-.56.44.44,0,0,0,.3-.46Zm-7.37,2.4a1.5,1.5,0,0,0,.26.28,1.48,1.48,0,0,0,1,.23c1.09-.1,2.18-.22,3.27-.31.46,0,.93,0,1.4,0,.71-.07,1.42-.19,2.13-.31a.62.62,0,0,0,.41-.27,2.57,2.57,0,0,0,.15-1.8c-.71.29-1.39.6-2.09.86a12.09,12.09,0,0,1-1.65.51c-.87.2-1.75.34-2.63.49C63.27,43.37,62.56,43.47,61.74,43.59Zm8.17,1.5a1.57,1.57,0,0,0-.45.85C69.85,45.84,70,45.65,69.91,45.09Zm5.16-1.34.4.18C75.47,43.63,75.37,43.58,75.07,43.75Z" transform="translate(4.42 8.55)"/><path d="M42.46,32.73a7.29,7.29,0,0,1,2.14,1.59,3,3,0,0,1,1.08,2.15,3.72,3.72,0,0,0,.08.57,2.46,2.46,0,0,1-1.47,2.79,2.55,2.55,0,0,1-1.82.24,1,1,0,0,0-1,.27,8.51,8.51,0,0,1-2.59,1.38,2.21,2.21,0,0,1-2.68-1,7,7,0,0,1-.46-1c-.06-.14-.11-.29-.17-.44a.92.92,0,0,0-.93-.58c-.45,0-.91-.07-1.36-.12a1.66,1.66,0,0,1-1-.5.92.92,0,0,1-.27-1c.11-.35.18-.71.27-1.06a.83.83,0,0,0-.24-.91,1.7,1.7,0,0,1-.5-.94c-.1-.4-.06-.57.28-.74.69-.34,1.37-.7,2.07-1A17.71,17.71,0,0,1,36,31.68a2.79,2.79,0,0,1,1.76.05.82.82,0,0,1,.39.27.59.59,0,0,1-.23,0,1.87,1.87,0,0,1-.46-.09,3,3,0,0,0-2.18.21l-3.56,1.56A2.36,2.36,0,0,0,32.33,35a1,1,0,0,1,.23,1.13c-.11.31-.17.64-.25,1a.89.89,0,0,0,.57,1.07,4.22,4.22,0,0,0,1.65.28,1.36,1.36,0,0,1,1.53,1.12A3.7,3.7,0,0,0,36.81,41a2,2,0,0,0,2.3.44,7.69,7.69,0,0,0,1.82-1c.14-.11.29-.2.42-.31a1.38,1.38,0,0,1,1.15-.24,2.62,2.62,0,0,0,2.5-.87,1.22,1.22,0,0,0,.26-.44A4.15,4.15,0,0,0,44.79,35a6.35,6.35,0,0,0-1.09-1.11c-.21-.2-.46-.38-.69-.57a1.44,1.44,0,0,0-1.21-.39h-.09c-.94.09-1.17-.09-1.26-1.07a12.85,12.85,0,0,1,0-1.52,1,1,0,0,0-.59-1,11.79,11.79,0,0,1-2-1.13,1.6,1.6,0,0,1-.8-1.73,2.94,2.94,0,0,1,1.58-2.12,1,1,0,0,1,.41-.11c.51,0,1,0,1.54,0,0,0,0,0,.09.09a2.78,2.78,0,0,1-1.13.17,1.82,1.82,0,0,0-1.85,1.12c-.11.21-.19.44-.28.65a1.2,1.2,0,0,0,.45,1.52,9.44,9.44,0,0,0,2,1.26,1.31,1.31,0,0,1,.81,1.28c0,.66.06,1.31.1,2,0,.34.11.4.45.39.11,0,.22,0,.33,0a.8.8,0,0,0,.77-.52c.35-.67.68-1.35,1.06-2a3.06,3.06,0,0,0,.47-1.95.66.66,0,0,1,0-.24.5.5,0,0,1,.28.48,2.78,2.78,0,0,1-.3,1.48,8.71,8.71,0,0,1-.56,1A8.71,8.71,0,0,0,42.46,32.73Z" transform="translate(4.42 8.55)"/><path d="M7.68,45.1c.24,0,.26.2.23.39a6.52,6.52,0,0,1-.19,1,3.44,3.44,0,0,0,.09,2,.69.69,0,0,0,.74.6c.5,0,1,0,1.5,0s.86.1,1.29.17A1.09,1.09,0,0,0,12.5,49a.47.47,0,0,1,.2-.1c.13-.06.3-.07.36-.17a2.33,2.33,0,0,0,.31-.68c0-.07-.11-.23-.2-.27a1.7,1.7,0,0,0-.5-.15,2.47,2.47,0,0,1-1.84-2.72,7.43,7.43,0,0,1,.55-1.56c.06-.15.24-.25.36-.36l.35-.3c-.29-.12-.51-.23-.74-.3a4.76,4.76,0,0,1-1.46-.73,1.66,1.66,0,0,1-.52-2A12.16,12.16,0,0,1,12,36.2c.15-.12.14-.13.38,0a3,3,0,0,1-.26.25,11.14,11.14,0,0,0-2.27,2.84,1.87,1.87,0,0,0-.26,1.14,1.24,1.24,0,0,0,.77,1.1l1.62.76c.45.22.48.46.11.77a1.67,1.67,0,0,0-.57.8,8.72,8.72,0,0,0-.29,1.2,1.89,1.89,0,0,0,1,2,6.42,6.42,0,0,0,1.22.47.42.42,0,0,0,.51-.24,4.8,4.8,0,0,1,1.92-1.63,13.44,13.44,0,0,1,1.52-.62c.34-.12.68-.22,1-.33,0-.11,0-.22,0-.32a4.54,4.54,0,0,1,.81-2.55c.16-.26.17-.25.6-.27l-.28.4a4.43,4.43,0,0,0-.8,2,1.13,1.13,0,0,0,1.37,1.26,1.82,1.82,0,0,0,1-.56c.21-.21.22-.2.53-.16a2.21,2.21,0,0,1-1.79,1,1.22,1.22,0,0,1-.65-.2,1.32,1.32,0,0,0-1.46-.13c-.63.3-1.28.59-1.92.88A4.93,4.93,0,0,0,14.1,47.6l.27.19s0,.06-.06.05c-.46-.08-.65.21-.79.58a2.14,2.14,0,0,1-.89,1.06,1.4,1.4,0,0,1-1,.24A14.33,14.33,0,0,0,9,49.53a1.57,1.57,0,0,1-1.49-1,1.21,1.21,0,0,1-.12-.41A6.1,6.1,0,0,1,7.49,46C7.56,45.72,7.62,45.41,7.68,45.1Z" transform="translate(4.42 8.55)"/><path d="M82.5,33c.12.47.24.94.37,1.41.2.75.38,1.51.61,2.25a2.3,2.3,0,0,0,.86,1.22L86,39.11a5.93,5.93,0,0,1,.56.43,1.84,1.84,0,0,0,1.16.55,1,1,0,0,1,.66.31,2.51,2.51,0,0,0,.66.31c.3.13.59.27.88.42.05,0,.08.09.16.17a1.5,1.5,0,0,1-1,.42c-.79,0-1.58,0-2.38,0a2.11,2.11,0,0,1-.5-.1,3.11,3.11,0,0,0-1.52-.11,1.23,1.23,0,0,0,.09.29q.27.45.57.87a1.39,1.39,0,0,0,1,.58l3.85.53c.41.06.41,0,.63.18a1.1,1.1,0,0,1-.72.16L89.28,44l-2.87-.44A1.49,1.49,0,0,1,85.28,43s0-.07-.06-.08c-.67-.34-.68-1-.84-1.64l-.15-.6c-.18-.74-.35-1.49-.56-2.22-.16-.55-.36-1.08-.53-1.63a10.79,10.79,0,0,1-.33-1.24c-.13-.61-.23-1.22-.33-1.83,0-.27-.06-.54-.09-.8Zm1.72,6.18a.94.94,0,0,0,0,.62,3.22,3.22,0,0,1,.16.5.6.6,0,0,0,.57.54c.51.07,1,.1,1.54.13a1.54,1.54,0,0,0,1.07-.31.66.66,0,0,0-.22-.13A12.83,12.83,0,0,0,86,40.2a2,2,0,0,1-1.6-.93S84.29,39.21,84.22,39.14Zm-.48-1.4-.08.07a.87.87,0,0,0,.1.24,6.85,6.85,0,0,0,.68.9,5.73,5.73,0,0,0,1.06.85,1.83,1.83,0,0,0,1.19.12,7.82,7.82,0,0,0-1.09-.72c-.32-.22-.6-.49-.91-.72A4.77,4.77,0,0,0,83.74,37.74Zm2.84,3.5v.15a9.27,9.27,0,0,0,3-.16.17.17,0,0,0-.11-.11c-.45-.14-.89-.27-1.34-.39a.67.67,0,0,0-.37,0C87.37,40.9,87,41.07,86.58,41.24Z" transform="translate(4.42 8.55)"/><path d="M23.53,64.05c.43-.1.81-.18,1.18-.29a3.55,3.55,0,0,0,.78-.32,7.58,7.58,0,0,0,2.13-1.82,4.27,4.27,0,0,1,.44-.41c.09.07.15.1.19.14a2.14,2.14,0,0,0,2.87.48c.85-.5,1.67-1.06,2.5-1.6a2.86,2.86,0,0,0,.3-.22.5.5,0,0,1,.68,0,1.15,1.15,0,0,0,1,.29,4.9,4.9,0,0,0,1.18-.43A5.26,5.26,0,0,0,38.5,58a1.72,1.72,0,0,0,.41-.94l-.56-.35a2.9,2.9,0,0,1,.47-.16l.89-.1a2.4,2.4,0,0,0,1.57-.76A10,10,0,0,0,42,54.9c.36-.47.53-.65,0-1.24.1-.14.24-.23.38-.11.51.43,1,.16,1.44-.07A1.4,1.4,0,0,0,44,51c-.68-.51-1.38-1-2.06-1.5a.51.51,0,0,1-.22-.3,1,1,0,0,1,.24.08c.78.47,1.58.92,2.34,1.42a1.69,1.69,0,0,1,.15,2.59,2.76,2.76,0,0,1-1.19.64,1,1,0,0,0-.59.43,10.13,10.13,0,0,1-.72,1,3.37,3.37,0,0,1-2.11,1.38.56.56,0,0,0-.5.38s0,0,0,0a6.55,6.55,0,0,1-1.8,2.39,3.45,3.45,0,0,1-1.72,1,1.64,1.64,0,0,1-1.69-.42L32.88,61c-.56.38-1.1.79-1.69,1.12a2.38,2.38,0,0,1-2.73-.07,2.2,2.2,0,0,0-.28-.18.35.35,0,0,0-.47.06c-.21.21-.43.41-.63.63a5.21,5.21,0,0,1-2.48,1.56A1.21,1.21,0,0,1,23.53,64.05Z" transform="translate(4.42 8.55)"/><path d="M76.14,46.87h-.35c0-.1.07-.2.13-.25.48-.42.89-.93,1.35-1.37a9.79,9.79,0,0,0,1.26-1.62l.61-1,.1.49c.45.3.82.59,1.22.82.58.34,1.18.63,1.78,1l.53.26c-.14,0-.19,0-.24,0l-2.17-.72-.26-.11a1.8,1.8,0,0,1-1-.65s-.1-.07-.22-.15c0,.14-.11.26-.08.34a.48.48,0,0,1-.12.49l-1.18,1.4c-.15.2-.26.43-.42.62-.32.36-.67.7-1,1a.28.28,0,0,0-.08.11,7.26,7.26,0,0,1-1,2,2.65,2.65,0,0,1-.45.5l-.09,0,.29-.66c-.43.15-.5.65-.94.74.1-.58.63-.93.63-1.52-.22,0-.31.13-.39.25A12.18,12.18,0,0,0,73,51c.51,0,.67-.53,1.07-.67a5.18,5.18,0,0,1-1.34,1.41,1.89,1.89,0,0,1-.35.17l-.08-.09c.09-.19.2-.38.28-.57.2-.5.4-1,.59-1.5a.47.47,0,0,0,0-.23c-.14-.66.3-.93.76-1.15a10.79,10.79,0,0,0,1.92-1.23A1.58,1.58,0,0,0,76.14,46.87ZM74.42,49c.26.14.45.07.55-.1.2-.35.37-.73.55-1.1A2.3,2.3,0,0,0,74.42,49Z" transform="translate(4.42 8.55)"/><path d="M66.29,16.51a.83.83,0,0,1-.33.89l-2.62,2.23a7.94,7.94,0,0,0-.57.59l0,.11a3.56,3.56,0,0,0,.57,0c.84-.18,1.68-.37,2.51-.58a4.88,4.88,0,0,0,.81-.36.5.5,0,0,1,.59,0c-.31.22-.57.43-.85.62-.7.47-1.41.94-2.12,1.39A10.6,10.6,0,0,1,63.1,22a23.14,23.14,0,0,0-3.75,2.14,13.64,13.64,0,0,0-1.13,1c0-.09,0-.17,0-.21a3.58,3.58,0,0,1,1-1.06,32.91,32.91,0,0,1,4-2.22c.55-.27,1.06-.59,1.6-.89l.56-.33c.16-.1.3-.21.45-.31l0-.1c-.32.07-.65.13-1,.22s-.87.25-1.31.34a2,2,0,0,1-.74,0c-.4-.06-.49-.34-.22-.64a8.51,8.51,0,0,1,.76-.71c.81-.69,1.64-1.37,2.46-2.05L66,17c-.15-.18-.31-.09-.45-.06-.48.12-1,.24-1.45.39s-1.13.35-1.69.55-1,.09-1.49.21l0-.11c.23-.19.48-.37.69-.58a8.67,8.67,0,0,1,.62-.72c.22-.19.32-.53.64-.62-.22.67-.82,1.06-1.18,1.78A21.45,21.45,0,0,1,66.29,16.51Z" transform="translate(4.42 8.55)"/><path d="M43.87,27.31a.54.54,0,0,1,.46-.4,4.33,4.33,0,0,0,2-.91l2.9-2a7.52,7.52,0,0,0,.62-.5,12.42,12.42,0,0,1,2.51-1.89,2,2,0,0,0,.49-.36,3,3,0,0,1,1-.68c1-.53,2.07-1,3.1-1.56.73-.36,1.47-.7,2.18-1.1s1.67-1,2.51-1.48a.67.67,0,0,1,.36-.11l-.12.14a18.09,18.09,0,0,1-3.82,2.29c-.38.17-.74.41-1.11.61-.67.36-1.36.69-2,1.07-1,.56-1.95,1.14-2.9,1.74a13.45,13.45,0,0,0-1.53,1.17,28,28,0,0,1-2.71,2l-2,1.39a1.77,1.77,0,0,1-.53.27C44.78,27.13,44.34,27.21,43.87,27.31Z" transform="translate(4.42 8.55)"/><path d="M81.26,27.31a2.88,2.88,0,0,1-.68-1.75c-.08-.77-.14-1.55-.21-2.32,0-.14,0-.34-.25-.36,0,.2-.08.39-.11.58a3.64,3.64,0,0,1-.51,1.33.44.44,0,0,1-.68.16,1.15,1.15,0,0,1-.51-.59c-.21-.51-.45-1-.68-1.52,0-.08-.1-.15-.21-.33-.07.31-.12.53-.16.75s-.1.57-.14.85a.36.36,0,0,1-.34.34.7.7,0,0,1-.42-.24,1.44,1.44,0,0,1-.21-.47c-.13-.3-.25-.61-.38-.92A.49.49,0,0,1,76,22.1c.08.38.15.75.24,1.11a1.44,1.44,0,0,0,.51,1c.09-.29.15-.51.22-.73s.18-.67.31-1,.3-.35.5,0a4.64,4.64,0,0,1,.41.8c.16.35.3.7.45,1.05a.55.55,0,0,0,.49.39c.64-.76.58-1.81,1-2.76.1.22.18.35.23.49a11.71,11.71,0,0,1,.51,3,7,7,0,0,0,.34,1.38C81.29,27,81.38,27.1,81.26,27.31Z" transform="translate(4.42 8.55)"/><path d="M71.64,22.61c0,.36-.31.39-.51.49a5.88,5.88,0,0,1-.73.3.33.33,0,0,0-.24.44c.07.31.13.62.22.92,0,.1.14.18.21.27l.27.3,0,.09-.44-.12.09,2c0,.24,0,.49-.24.63,0,0-.07.09-.06.12.17.4-.28.64-.26,1,0,0,0,0-.12.08a1.3,1.3,0,0,1-.05-.37A5.89,5.89,0,0,1,70,27.7a2.34,2.34,0,0,0,.07-1.31,3.33,3.33,0,0,1-.07-.7,6.72,6.72,0,0,0-.37-2.05c-.62.1-1.21.15-1.78.3a4.28,4.28,0,0,1-1.67,0,5.74,5.74,0,0,1-.91-.22c-.45-.13-.58-.1-.89.28-.12.14-.19.37-.47.33a1.23,1.23,0,0,1,.35-.77.68.68,0,0,1,.69-.2l1,.25a7.9,7.9,0,0,0,2.7,0,8,8,0,0,0,2.6-.88A3.38,3.38,0,0,1,71.64,22.61Z" transform="translate(4.42 8.55)"/><path d="M15.35,52.14a1.36,1.36,0,0,1-.17.17,4.34,4.34,0,0,0-1.7,2.48,10.17,10.17,0,0,0-.56,2.79,2.28,2.28,0,0,0,1.14,2.19,3.14,3.14,0,0,0,1.56.61,7.59,7.59,0,0,0,2.5-.3,7.85,7.85,0,0,1,1.31-.33c-.08,0-.15.1-.24.14a7.47,7.47,0,0,1-4.39.61,1.23,1.23,0,0,1-.43-.16c-.43-.3-.85-.6-1.25-.94a1.43,1.43,0,0,1-.52-1.22c.08-.92.18-1.84.33-2.74a6,6,0,0,1,1.64-3.11A.57.57,0,0,1,15.35,52.14Z" transform="translate(4.42 8.55)"/><path d="M50.8,22.15a3.27,3.27,0,0,1-.37.28,2,2,0,0,0-.72.65.92.92,0,0,1-.32.26L45.24,25.9a4.77,4.77,0,0,0-.64.55.88.88,0,0,1-.36.21l.14-.65L43,26.1c.31-.37.68-.12,1-.27a1.76,1.76,0,0,0-.81-.94A10.65,10.65,0,0,0,42,24.32c.38-.14.68.08,1,.08a.76.76,0,0,0-.67-.91c-.2,0-.41,0-.61,0a1.63,1.63,0,0,1-.3-.07c0-.06,0-.11,0-.12a1.85,1.85,0,0,1,1.57.23.6.6,0,0,1,.26.67.66.66,0,0,0,.26.71,8.53,8.53,0,0,1,.7.77.44.44,0,0,0,.62.13,1.46,1.46,0,0,0,.33-.17c1.23-.91,2.58-1.6,3.85-2.42.4-.25.78-.53,1.17-.79l.53-.32Z" transform="translate(4.42 8.55)"/><path d="M19.89,59.4a.46.46,0,0,1,.38.37,9.55,9.55,0,0,0,.42,1.41,2.8,2.8,0,0,0,.53.71c.15.16.33.29.48.45a1.89,1.89,0,0,0,.87.54,7.35,7.35,0,0,1,1.07.49c.07,0,.12.12.2.2a1.62,1.62,0,0,1-.83.34c-.08,0-.21,0-.29-.1-.57-.45-1.13-.91-1.69-1.37a3.19,3.19,0,0,1-1-1.69,6.66,6.66,0,0,1-.17-.89A2.53,2.53,0,0,1,19.89,59.4Z" transform="translate(4.42 8.55)"/><path d="M58.61,25.19a2.53,2.53,0,0,1,.23-.12c.59-.19,1.2-.35,1.79-.56a8.61,8.61,0,0,0,1.28-.57,21,21,0,0,1,2.56-1.15c.68-.27,1.32-.64,2-1,.41-.19.82-.39,1.24-.57a1.6,1.6,0,0,1,.39-.05l0,.11c-.18.11-.35.23-.53.33L65.16,23c-.15.07-.29.19-.47,0s-.2,0-.29,0l-2.28,1.1a15.25,15.25,0,0,1-3.27,1.13h-.22Z" transform="translate(4.42 8.55)"/><path d="M71.31,26.69l.49.51a1.16,1.16,0,0,0,.34-.82c.11-.88.18-1.77.25-2.65,0-.43,0-.86.08-1.29a27.59,27.59,0,0,0-.11-3.28c0-.44,0-.89-.06-1.33a.43.43,0,0,1,.16-.27c.17.51.46,1,.21,1.56a.76.76,0,0,0-.08.36c0,.59.13,1.17.16,1.75a15.61,15.61,0,0,1,0,1.81c-.08,1-.2,2.08-.31,3.12a5.14,5.14,0,0,1-.12.8.9.9,0,0,1-.29.4c-.25.16-.43.08-.57-.19A4.42,4.42,0,0,1,71.31,26.69Z" transform="translate(4.42 8.55)"/><path d="M74.4,25.6c.38-.15.53-.33.53-.68a3.38,3.38,0,0,1,.35-1.42,3,3,0,0,1,.24-.38,2.75,2.75,0,0,1,0,.29c-.16.68-.31,1.36-.49,2-.14.52-.48.6-.81.2a1.89,1.89,0,0,1-.37-.75c-.19-.83-.34-1.68-.49-2.52-.18-1-.35-2.07-.52-3.11a.26.26,0,0,1,0-.17,2.86,2.86,0,0,1,.39,1.09c.15.86.29,1.72.46,2.58a15,15,0,0,1,.41,2.1A3.59,3.59,0,0,0,74.4,25.6Z" transform="translate(4.42 8.55)"/><path d="M83.37,45.36l.48-.07c.41-.07.82-.16,1.24-.22a5.21,5.21,0,0,1,1-.1,13.86,13.86,0,0,0,3-.12,8.19,8.19,0,0,0,.85-.23.47.47,0,0,1,.26,0,1.47,1.47,0,0,1-.74.43,9.27,9.27,0,0,1-2.88.25,5.68,5.68,0,0,0-2.17.22,1.1,1.1,0,0,1-.94-.05Z" transform="translate(4.42 8.55)"/><path d="M76.06,48.32a1,1,0,0,1,.37-.68c.29-.24.59-.47.89-.69a2.43,2.43,0,0,0,.89-1,5.69,5.69,0,0,1,.61-1,3.18,3.18,0,0,1-.7,1.65c-.57.54-1.16,1-1.75,1.57A1.55,1.55,0,0,1,76.06,48.32Z" transform="translate(4.42 8.55)"/><path d="M82.28,32.05c-.19-.13-.18-.13-.2-.67,0-.24-.08-.47-.11-.7s0-.51-.08-.76-.06-.47-.1-.71-.09-.49-.15-.74-.11-.45-.17-.67l.1-.05a2.25,2.25,0,0,1,.19.38,10.53,10.53,0,0,1,.5,3C82.27,31.43,82.27,31.72,82.28,32.05Z" transform="translate(4.42 8.55)"/><path d="M70,31.27a11.26,11.26,0,0,1-.19,4.37.78.78,0,0,1-.1-.64c0-.52.15-1,.2-1.55s.06-1,.08-1.47C70,31.75,70,31.51,70,31.27Z" transform="translate(4.42 8.55)"/><path d="M39.15,20.66a1,1,0,0,1,1.09.76A1.14,1.14,0,0,1,40,22.71a1.47,1.47,0,0,1-.06-.32c0-.16,0-.31,0-.47a1,1,0,0,0-.47-1A4.39,4.39,0,0,1,39.15,20.66Z" transform="translate(4.42 8.55)"/><path d="M64.31,24.39c.5.05,1,.13,1.5.14s1-.06,1.47,0a4.58,4.58,0,0,1-3,.08Z" transform="translate(4.42 8.55)"/><path d="M70.29,35.81c.17.85.16,1.67.25,2.47,0,0-.05.1-.09.16A3.4,3.4,0,0,1,70.29,35.81Z" transform="translate(4.42 8.55)"/><path d="M76.34,38.38a3.25,3.25,0,0,1,0,2.45,3.38,3.38,0,0,1,0-1.23c0-.4,0-.81-.07-1.21Z" transform="translate(4.42 8.55)"/><path d="M47.19,43a2.83,2.83,0,0,1-1.29-1.17c.11-.14.24-.07.32,0A4,4,0,0,1,47.19,43Z" transform="translate(4.42 8.55)"/><path d="M13.66,51.79c-.79-.08-1.17-.66-1-1.52A2,2,0,0,0,13.66,51.79Z" transform="translate(4.42 8.55)"/><path d="M31.78,26.19c.25-.57.58-.64,1.24-.22-.12,0-.21.08-.26.05a.73.73,0,0,0-.86.16.11.11,0,0,1-.08,0Z" transform="translate(4.42 8.55)"/><path d="M69.87,29.48c.18.22.18.22.15,1.37A1.88,1.88,0,0,1,69.87,29.48Z" transform="translate(4.42 8.55)"/><path d="M82.85,32.76l-.21-1.13c.14,0,.22,0,.24.08A1.24,1.24,0,0,1,82.85,32.76Z" transform="translate(4.42 8.55)"/><path d="M71,26.09l.07-.38.67.78A2,2,0,0,1,71,26.09Z" transform="translate(4.42 8.55)"/><path d="M49.81,34.15a2.18,2.18,0,0,1-1,.52A2.23,2.23,0,0,1,49.81,34.15Z" transform="translate(4.42 8.55)"/><path d="M83.38,33.86A2.3,2.3,0,0,1,83.67,35a2.19,2.19,0,0,1-.28-1.12Z" transform="translate(4.42 8.55)"/><path d="M73.73,43.9l-.46.47c0-.33,0-.33.39-.55Z" transform="translate(4.42 8.55)"/><path d="M74.58,42.84l-.47.63-.1-.08.45-.63Z" transform="translate(4.42 8.55)"/><path d="M83.92,35.85l-.24-.54A.39.39,0,0,1,83.92,35.85Z" transform="translate(4.42 8.55)"/><path d="M83.39,33.85a.67.67,0,0,1-.28-.72,1,1,0,0,1,.27.73Z" transform="translate(4.42 8.55)"/><path d="M70.93,42.16l.13-.67C71.17,41.77,71.17,41.77,70.93,42.16Z" transform="translate(4.42 8.55)"/><path d="M69.12,41.18l-.53-.4c.31,0,.31,0,.52.41Z" transform="translate(4.42 8.55)"/><path d="M28.1,67.58" transform="translate(4.42 8.55)"/><path d="M42.68,41.41c.19-.19.31-.18.47,0C43,41.59,42.88,41.5,42.68,41.41Z" transform="translate(4.42 8.55)"/><path d="M61.9-4.8h-.37v-.06l.36,0Z" transform="translate(4.42 8.55)"/><path d="M84.47,43.67l.14-.4.11,0-.14.41Z" transform="translate(4.42 8.55)"/><path d="M94.81-6.39l.42-.08,0,.1-.42.06Z" transform="translate(4.42 8.55)"/><path d="M73.06,30.66l-.12-.15,0,0,.16.11Z" transform="translate(4.42 8.55)"/><path d="M94.91,67.78l-.2.07,0-.11a.7.7,0,0,1,.19-.06Z" transform="translate(4.42 8.55)"/><path class="cls-7" d="M61.74,43.59c.82-.12,1.53-.22,2.23-.34.88-.15,1.76-.29,2.63-.49a12.09,12.09,0,0,0,1.65-.51c.7-.26,1.38-.57,2.09-.86a2.57,2.57,0,0,1-.15,1.8.62.62,0,0,1-.41.27c-.71.12-1.42.24-2.13.31-.47,0-.94,0-1.4,0-1.09.09-2.18.21-3.27.31a1.48,1.48,0,0,1-1-.23A1.5,1.5,0,0,1,61.74,43.59Z" transform="translate(4.42 8.55)"/><path class="cls-7" d="M69.91,45.09c0,.56-.06.75-.45.85A1.57,1.57,0,0,1,69.91,45.09Z" transform="translate(4.42 8.55)"/><path class="cls-7" d="M75.07,43.75c.3-.17.4-.12.4.18Z" transform="translate(4.42 8.55)"/><path class="cls-7" d="M84.22,39.14c.07.07.11.09.14.13a2,2,0,0,0,1.6.93,12.83,12.83,0,0,1,1.37.29.66.66,0,0,1,.22.13,1.54,1.54,0,0,1-1.07.31c-.52,0-1-.06-1.54-.13a.6.6,0,0,1-.57-.54,3.22,3.22,0,0,0-.16-.5A.94.94,0,0,1,84.22,39.14Z" transform="translate(4.42 8.55)"/><path class="cls-7" d="M83.74,37.74a4.77,4.77,0,0,1,1,.74c.31.23.59.5.91.72a7.82,7.82,0,0,1,1.09.72,1.83,1.83,0,0,1-1.19-.12A5.73,5.73,0,0,1,84.44,39a6.85,6.85,0,0,1-.68-.9.87.87,0,0,1-.1-.24Z" transform="translate(4.42 8.55)"/><path class="cls-7" d="M86.58,41.24c.39-.17.79-.34,1.19-.49a.67.67,0,0,1,.37,0c.45.12.89.25,1.34.39a.17.17,0,0,1,.11.11,9.27,9.27,0,0,1-3,.16Z" transform="translate(4.42 8.55)"/><path class="cls-7" d="M74.42,49a2.3,2.3,0,0,1,1.1-1.2c-.18.37-.35.75-.55,1.1C74.87,49.1,74.68,49.17,74.42,49Z" transform="translate(4.42 8.55)"/></g><polygon class="cls-16" points="86.44 102.24 34.59 106.92 26.65 6.14 79.61 2.26 86.44 102.24"/><path class="cls-17" d="M56.77,82.42h0a4.2,4.2,0,0,1,3.15,7A4.15,4.15,0,0,1,57,90.79h-.28a4.19,4.19,0,0,1-.27-8.37h.28m0-.75h-.32a4.94,4.94,0,0,0,.31,9.87h.33a4.94,4.94,0,0,0-.32-9.87Z" transform="translate(4.42 8.55)"/><circle class="cls-18" cx="61.19" cy="95.16" r="2.82"/><rect class="cls-10" x="38.91" y="-5.63" width="22.59" height="5.65" rx="1.21" ry="1.21" transform="translate(4.71 11.82) rotate(-3.75)"/><path class="cls-10" d="M70.42-5.55h0a3.66,3.66,0,0,1,3.86,3L81.58,90a3,3,0,0,1-.75,2.16,4.29,4.29,0,0,1-2.94,1.43L34.82,96.91h-.36a3.64,3.64,0,0,1-3.85-3L23.31,1.34a3,3,0,0,1,.74-2.16A4.32,4.32,0,0,1,27-2.24L70.06-5.53l.36,0m0-3-.59,0L26.76-5.23c-3.83.29-6.72,3.34-6.45,6.81l7.31,92.57a6.6,6.6,0,0,0,6.84,5.77l.59,0,43.07-3.29c3.84-.3,6.72-3.35,6.45-6.81L77.27-2.78a6.62,6.62,0,0,0-6.85-5.77Z" transform="translate(4.42 8.55)"/><path class="cls-10" d="M78.91,14.92h0a.41.41,0,0,0-.39.41l.83,10.52a.41.41,0,0,0,.42.35h0a.42.42,0,0,0,.4-.42l-.83-10.51a.41.41,0,0,0-.42-.35Z" transform="translate(4.42 8.55)"/><path class="cls-10" d="M62-4.94a.86.86,0,0,0-.67.94h-.42V-5.15L62-5.23Z" transform="translate(4.42 8.55)"/><path d="M45.91-2.75h0a.41.41,0,0,1,.39-.42l5.07-.38a.41.41,0,0,1,.46.35h0a.41.41,0,0,1-.4.41l-5.07.39A.41.41,0,0,1,45.91-2.75Z" transform="translate(4.42 8.55)"/><ellipse class="cls-11" cx="54.21" cy="-3.34" rx="0.69" ry="0.62" transform="translate(4.75 12.08) rotate(-3.75)"/><ellipse class="cls-12" cx="54.21" cy="-3.34" rx="0.48" ry="0.43" transform="matrix(1, -0.07, 0.07, 1, 4.75, 12.08)"/><ellipse class="cls-11" cx="54.21" cy="-3.34" rx="0.05" ry="0.05" transform="translate(4.75 12.08) rotate(-3.75)"/><path class="cls-10" d="M20.82,13.35l-.24-3A.46.46,0,0,1,21,9.92h0a.46.46,0,0,1,.51.39l.23,3a.45.45,0,0,1-.44.46h0A.46.46,0,0,1,20.82,13.35Z" transform="translate(4.42 8.55)"/><path class="cls-10" d="M21.73,23.57l-.5-6.31a.46.46,0,0,1,.44-.47h0a.45.45,0,0,1,.51.4l.5,6.3a.46.46,0,0,1-.44.47h0A.46.46,0,0,1,21.73,23.57Z" transform="translate(4.42 8.55)"/><path class="cls-10" d="M22.44,32.55l-.5-6.31a.45.45,0,0,1,.44-.46h0a.46.46,0,0,1,.51.39l.5,6.31a.45.45,0,0,1-.44.46h0A.46.46,0,0,1,22.44,32.55Z" transform="translate(4.42 8.55)"/><g class="cls-19"><path class="cls-20" d="M96.24,96.67S90,92.4,88.86,91.94s-4.06-2.66-7.77-6.38-6.34-5-8.39-5.47-3.76.39-7.09-1a16.3,16.3,0,0,0-5.13-1.4l-6.55,3.82a10.43,10.43,0,0,0,3.79,6c3.11,2.24,8.28,6.26,10.85,5.1,0,0,7,7.79,8.29,8.37a16.18,16.18,0,0,0,1.72,2.84c.3,0,4.39,30.33,14.94,30.27" transform="translate(4.42 8.55)"/><path class="cls-21" d="M75.77,82.62s.32,3.56-3.55,6.85,0-.2,0-.2A12.19,12.19,0,0,0,75.77,82.62Z" transform="translate(4.42 8.55)"/><path class="cls-21" d="M73.2,80.86a6.52,6.52,0,0,0-2.48,5.69S71.82,82.18,73.2,80.86Z" transform="translate(4.42 8.55)"/><path class="cls-21" d="M73.92,83s-.14,3.9-2.39,5A10.22,10.22,0,0,0,73.92,83Z" transform="translate(4.42 8.55)"/><path class="cls-21" d="M77,101a4.47,4.47,0,0,0,3.59-2A8.61,8.61,0,0,1,77,101Z" transform="translate(4.42 8.55)"/><path class="cls-21" d="M77.12,100.68a3.1,3.1,0,0,0,1.76-1.87A5.42,5.42,0,0,1,77.12,100.68Z" transform="translate(4.42 8.55)"/><path class="cls-21" d="M78.72,103.55a4.48,4.48,0,0,0,3.76-1.67A8.62,8.62,0,0,1,78.72,103.55Z" transform="translate(4.42 8.55)"/><path class="cls-21" d="M79,103.44s2.23-.57,2.57-2A6.17,6.17,0,0,1,79,103.44Z" transform="translate(4.42 8.55)"/><path class="cls-22" d="M55.83,76.27a1.1,1.1,0,0,0-.9.6l-.75,1.51s-2.76,2.76,4.07,6.51a1.09,1.09,0,0,0,1.45-.36c.91-1.43,2.74-4.15,3.48-4.15C64.12,80.38,59.69,75.9,55.83,76.27Z" transform="translate(4.42 8.55)"/><path class="cls-23" d="M57.94,76.47a4.11,4.11,0,0,0-3.08,1.18s-1.8,2.16-.49,4.35a5,5,0,0,1-1-1.15,3.57,3.57,0,0,1,.48-3.54C54.64,76.32,55.44,75.62,57.94,76.47Z" transform="translate(4.42 8.55)"/></g></g></g></svg>